solid Untitled-5d49d1d1
facet normal 0.0 0.0 -1.0
  outer loop
    vertex 0.0 210.00000000000003 0.0
    vertex 3.0 207.00000000000003 0.0
    vertex 0.0 0.0 0.0
  endloop
endfacet
facet normal 0.0 0.0 -1.0
  outer loop
    vertex 3.0 207.00000000000003 0.0
    vertex 0.0 210.00000000000003 0.0
    vertex 335.0 210.00000000000003 0.0
  endloop
endfacet
facet normal 0.0 0.0 -1.0
  outer loop
    vertex 3.0 207.00000000000003 0.0
    vertex 335.0 210.00000000000003 0.0
    vertex 332.0 207.00000000000003 0.0
  endloop
endfacet
facet normal 0.0 0.0 -1.0
  outer loop
    vertex 332.0 207.00000000000003 0.0
    vertex 335.0 210.00000000000003 0.0
    vertex 332.0 3.0 0.0
  endloop
endfacet
facet normal 0.0 0.0 -1.0
  outer loop
    vertex 0.0 0.0 0.0
    vertex 3.0 3.0 0.0
    vertex 335.0 0.0 0.0
  endloop
endfacet
facet normal 0.0 0.0 -1.0
  outer loop
    vertex 3.0 3.0 0.0
    vertex 0.0 0.0 0.0
    vertex 3.0 207.00000000000003 0.0
  endloop
endfacet
facet normal 0.0 0.0 -1.0
  outer loop
    vertex 335.0 0.0 0.0
    vertex 3.0 3.0 0.0
    vertex 332.0 3.0 0.0
  endloop
endfacet
facet normal 0.0 0.0 -1.0
  outer loop
    vertex 335.0 0.0 0.0
    vertex 332.0 3.0 0.0
    vertex 335.0 210.00000000000003 0.0
  endloop
endfacet
facet normal 1.0 0.0 0.0
  outer loop
    vertex 3.0 207.00000000000003 10.0
    vertex 3.0 3.0 400.0
    vertex 3.0 2.9999999999999947 10.0
  endloop
endfacet
facet normal 1.0 0.0 0.0
  outer loop
    vertex 3.0 3.0 400.0
    vertex 3.0 207.00000000000003 10.0
    vertex 3.0 207.00000000000003 400.0
  endloop
endfacet
facet normal -0.0 -1.0 -0.0
  outer loop
    vertex 335.0 0.0 0.0
    vertex 325.00000000000006 0.0 90.0
    vertex 0.0 0.0 0.0
  endloop
endfacet
facet normal -0.0 -1.0 -0.0
  outer loop
    vertex 325.00000000000006 0.0 90.0
    vertex 335.0 0.0 0.0
    vertex 335.0 0.0 400.0
  endloop
endfacet
facet normal -0.0 -1.0 -0.0
  outer loop
    vertex 325.00000000000006 0.0 90.0
    vertex 335.0 0.0 400.0
    vertex 325.00000000000006 0.0 120.0
  endloop
endfacet
facet normal -0.0 -1.0 -0.0
  outer loop
    vertex 325.00000000000006 0.0 120.0
    vertex 335.0 0.0 400.0
    vertex 10.000000000000027 0.0 120.0
  endloop
endfacet
facet normal -0.0 -1.0 -0.0
  outer loop
    vertex 0.0 0.0 0.0
    vertex 10.000000000000027 0.0 90.0
    vertex 0.0 0.0 400.0
  endloop
endfacet
facet normal -0.0 -1.0 -0.0
  outer loop
    vertex 10.000000000000027 0.0 90.0
    vertex 0.0 0.0 0.0
    vertex 325.00000000000006 0.0 90.0
  endloop
endfacet
facet normal -0.0 -1.0 -0.0
  outer loop
    vertex 0.0 0.0 400.0
    vertex 10.000000000000027 0.0 90.0
    vertex 10.000000000000027 0.0 120.0
  endloop
endfacet
facet normal -0.0 -1.0 -0.0
  outer loop
    vertex 0.0 0.0 400.0
    vertex 10.000000000000027 0.0 120.0
    vertex 335.0 0.0 400.0
  endloop
endfacet
facet normal 1.0 0.0 0.0
  outer loop
    vertex 335.0 210.00000000000003 0.0
    vertex 335.0 0.0 400.0
    vertex 335.0 0.0 0.0
  endloop
endfacet
facet normal 1.0 0.0 0.0
  outer loop
    vertex 335.0 0.0 400.0
    vertex 335.0 210.00000000000003 0.0
    vertex 335.0 90.51111260566398 296.11771432346217
  endloop
endfacet
facet normal 1.0 0.0 0.0
  outer loop
    vertex 335.0 0.0 400.0
    vertex 335.0 90.51111260566398 296.11771432346217
    vertex 335.0 90.0 300.0
  endloop
endfacet
facet normal 1.0 0.0 0.0
  outer loop
    vertex 335.0 90.51111260566398 296.11771432346217
    vertex 335.0 210.00000000000003 0.0
    vertex 335.0 92.00961894323342 292.5
  endloop
endfacet
facet normal 1.0 0.0 0.0
  outer loop
    vertex 335.0 92.00961894323342 292.5
    vertex 335.0 210.00000000000003 0.0
    vertex 335.0 94.3933982822018 289.39339828220176
  endloop
endfacet
facet normal 1.0 0.0 0.0
  outer loop
    vertex 335.0 94.3933982822018 289.39339828220176
    vertex 335.0 210.00000000000003 0.0
    vertex 335.0 97.5 287.0096189432334
  endloop
endfacet
facet normal 1.0 0.0 0.0
  outer loop
    vertex 335.0 97.5 287.0096189432334
    vertex 335.0 210.00000000000003 0.0
    vertex 335.0 101.11771432346221 285.511112605664
  endloop
endfacet
facet normal 1.0 0.0 0.0
  outer loop
    vertex 335.0 101.11771432346221 285.511112605664
    vertex 335.0 210.00000000000003 0.0
    vertex 335.0 105.00000000000001 285.0
  endloop
endfacet
facet normal 1.0 0.0 0.0
  outer loop
    vertex 335.0 105.00000000000001 285.0
    vertex 335.0 210.00000000000003 0.0
    vertex 335.0 108.88228567653785 285.511112605664
  endloop
endfacet
facet normal 1.0 0.0 0.0
  outer loop
    vertex 335.0 108.88228567653785 285.511112605664
    vertex 335.0 210.00000000000003 0.0
    vertex 335.0 112.50000000000001 287.0096189432334
  endloop
endfacet
facet normal 1.0 0.0 0.0
  outer loop
    vertex 335.0 112.50000000000001 287.0096189432334
    vertex 335.0 210.00000000000003 0.0
    vertex 335.0 115.60660171779823 289.39339828220176
  endloop
endfacet
facet normal 1.0 0.0 0.0
  outer loop
    vertex 335.0 115.60660171779823 289.39339828220176
    vertex 335.0 210.00000000000003 0.0
    vertex 335.0 117.99038105676661 292.5
  endloop
endfacet
facet normal 1.0 0.0 0.0
  outer loop
    vertex 335.0 117.99038105676661 292.5
    vertex 335.0 210.00000000000003 0.0
    vertex 335.0 119.48888739433606 296.11771432346217
  endloop
endfacet
facet normal 1.0 0.0 0.0
  outer loop
    vertex 335.0 119.48888739433606 296.11771432346217
    vertex 335.0 210.00000000000003 0.0
    vertex 335.0 120.00000000000003 300.0
  endloop
endfacet
facet normal 1.0 0.0 0.0
  outer loop
    vertex 335.0 0.0 400.0
    vertex 335.0 94.39339828220179 310.60660171779824
    vertex 335.0 210.00000000000003 400.0
  endloop
endfacet
facet normal 1.0 0.0 0.0
  outer loop
    vertex 335.0 94.39339828220179 310.60660171779824
    vertex 335.0 0.0 400.0
    vertex 335.0 92.0096189432334 307.5
  endloop
endfacet
facet normal 1.0 0.0 0.0
  outer loop
    vertex 335.0 92.0096189432334 307.5
    vertex 335.0 0.0 400.0
    vertex 335.0 90.51111260566397 303.88228567653783
  endloop
endfacet
facet normal 1.0 0.0 0.0
  outer loop
    vertex 335.0 90.51111260566397 303.88228567653783
    vertex 335.0 0.0 400.0
    vertex 335.0 90.0 300.0
  endloop
endfacet
facet normal 1.0 0.0 0.0
  outer loop
    vertex 335.0 210.00000000000003 400.0
    vertex 335.0 94.39339828220179 310.60660171779824
    vertex 335.0 97.49999999999999 312.9903810567666
  endloop
endfacet
facet normal 1.0 0.0 0.0
  outer loop
    vertex 335.0 210.00000000000003 400.0
    vertex 335.0 97.49999999999999 312.9903810567666
    vertex 335.0 101.11771432346218 314.488887394336
  endloop
endfacet
facet normal 1.0 0.0 0.0
  outer loop
    vertex 335.0 210.00000000000003 400.0
    vertex 335.0 101.11771432346218 314.488887394336
    vertex 335.0 105.00000000000001 315.0
  endloop
endfacet
facet normal 1.0 0.0 0.0
  outer loop
    vertex 335.0 210.00000000000003 400.0
    vertex 335.0 105.00000000000001 315.0
    vertex 335.0 108.88228567653782 314.488887394336
  endloop
endfacet
facet normal 1.0 0.0 0.0
  outer loop
    vertex 335.0 210.00000000000003 400.0
    vertex 335.0 108.88228567653782 314.488887394336
    vertex 335.0 112.50000000000001 312.9903810567666
  endloop
endfacet
facet normal 1.0 0.0 0.0
  outer loop
    vertex 335.0 210.00000000000003 400.0
    vertex 335.0 112.50000000000001 312.9903810567666
    vertex 335.0 115.60660171779823 310.60660171779824
  endloop
endfacet
facet normal 1.0 0.0 0.0
  outer loop
    vertex 335.0 210.00000000000003 400.0
    vertex 335.0 115.60660171779823 310.60660171779824
    vertex 335.0 117.99038105676661 307.5
  endloop
endfacet
facet normal 1.0 0.0 0.0
  outer loop
    vertex 335.0 210.00000000000003 400.0
    vertex 335.0 117.99038105676661 307.5
    vertex 335.0 119.48888739433606 303.88228567653783
  endloop
endfacet
facet normal 1.0 0.0 0.0
  outer loop
    vertex 335.0 210.00000000000003 400.0
    vertex 335.0 119.48888739433606 303.88228567653783
    vertex 335.0 120.00000000000003 300.0
  endloop
endfacet
facet normal 1.0 0.0 0.0
  outer loop
    vertex 335.0 210.00000000000003 400.0
    vertex 335.0 120.00000000000003 300.0
    vertex 335.0 210.00000000000003 0.0
  endloop
endfacet
facet normal 0.0 0.0 1.0
  outer loop
    vertex 0.0 0.0 400.0
    vertex 3.0 3.0 400.0
    vertex 0.0 210.00000000000003 400.0
  endloop
endfacet
facet normal 0.0 0.0 1.0
  outer loop
    vertex 3.0 3.0 400.0
    vertex 0.0 0.0 400.0
    vertex 335.0 0.0 400.0
  endloop
endfacet
facet normal 0.0 0.0 1.0
  outer loop
    vertex 3.0 3.0 400.0
    vertex 335.0 0.0 400.0
    vertex 332.0 3.0 400.0
  endloop
endfacet
facet normal 0.0 0.0 1.0
  outer loop
    vertex 332.0 3.0 400.0
    vertex 335.0 0.0 400.0
    vertex 332.0 207.00000000000003 400.0
  endloop
endfacet
facet normal 0.0 0.0 1.0
  outer loop
    vertex 0.0 210.00000000000003 400.0
    vertex 3.0 207.00000000000003 400.0
    vertex 335.0 210.00000000000003 400.0
  endloop
endfacet
facet normal 0.0 0.0 1.0
  outer loop
    vertex 3.0 207.00000000000003 400.0
    vertex 0.0 210.00000000000003 400.0
    vertex 3.0 3.0 400.0
  endloop
endfacet
facet normal 0.0 0.0 1.0
  outer loop
    vertex 335.0 210.00000000000003 400.0
    vertex 3.0 207.00000000000003 400.0
    vertex 332.0 207.00000000000003 400.0
  endloop
endfacet
facet normal 0.0 0.0 1.0
  outer loop
    vertex 335.0 210.00000000000003 400.0
    vertex 332.0 207.00000000000003 400.0
    vertex 335.0 0.0 400.0
  endloop
endfacet
facet normal -1.0 0.0 0.0
  outer loop
    vertex 332.0 3.0 400.0
    vertex 332.00000000000006 90.51111260566397 303.88228567653783
    vertex 332.0 3.0 10.0
  endloop
endfacet
facet normal -1.0 0.0 0.0
  outer loop
    vertex 332.00000000000006 90.51111260566397 303.88228567653783
    vertex 332.0 3.0 400.0
    vertex 332.00000000000006 92.0096189432334 307.5
  endloop
endfacet
facet normal -1.0 0.0 0.0
  outer loop
    vertex 332.00000000000006 92.0096189432334 307.5
    vertex 332.0 3.0 400.0
    vertex 332.00000000000006 94.39339828220179 310.60660171779824
  endloop
endfacet
facet normal -1.0 0.0 0.0
  outer loop
    vertex 332.00000000000006 94.39339828220179 310.60660171779824
    vertex 332.0 3.0 400.0
    vertex 332.0 207.00000000000003 400.0
  endloop
endfacet
facet normal -1.0 0.0 0.0
  outer loop
    vertex 332.0 3.0 10.0
    vertex 332.00000000000006 90.51111260566397 303.88228567653783
    vertex 332.00000000000006 90.0 300.0
  endloop
endfacet
facet normal -1.0 0.0 0.0
  outer loop
    vertex 332.00000000000006 94.39339828220179 310.60660171779824
    vertex 332.0 207.00000000000003 400.0
    vertex 332.00000000000006 97.49999999999999 312.9903810567666
  endloop
endfacet
facet normal -1.0 0.0 0.0
  outer loop
    vertex 332.00000000000006 97.49999999999999 312.9903810567666
    vertex 332.0 207.00000000000003 400.0
    vertex 332.00000000000006 101.11771432346218 314.488887394336
  endloop
endfacet
facet normal -1.0 0.0 0.0
  outer loop
    vertex 332.00000000000006 101.11771432346218 314.488887394336
    vertex 332.0 207.00000000000003 400.0
    vertex 332.00000000000006 105.00000000000001 315.0
  endloop
endfacet
facet normal -1.0 0.0 0.0
  outer loop
    vertex 332.00000000000006 105.00000000000001 315.0
    vertex 332.0 207.00000000000003 400.0
    vertex 332.00000000000006 108.88228567653782 314.488887394336
  endloop
endfacet
facet normal -1.0 0.0 0.0
  outer loop
    vertex 332.00000000000006 108.88228567653782 314.488887394336
    vertex 332.0 207.00000000000003 400.0
    vertex 332.00000000000006 112.50000000000001 312.9903810567666
  endloop
endfacet
facet normal -1.0 0.0 0.0
  outer loop
    vertex 332.00000000000006 112.50000000000001 312.9903810567666
    vertex 332.0 207.00000000000003 400.0
    vertex 332.00000000000006 115.60660171779823 310.60660171779824
  endloop
endfacet
facet normal -1.0 0.0 0.0
  outer loop
    vertex 332.00000000000006 115.60660171779823 310.60660171779824
    vertex 332.0 207.00000000000003 400.0
    vertex 332.00000000000006 117.99038105676661 307.5
  endloop
endfacet
facet normal -1.0 0.0 0.0
  outer loop
    vertex 332.00000000000006 117.99038105676661 307.5
    vertex 332.0 207.00000000000003 400.0
    vertex 332.00000000000006 119.48888739433606 303.88228567653783
  endloop
endfacet
facet normal -1.0 0.0 0.0
  outer loop
    vertex 332.00000000000006 119.48888739433606 303.88228567653783
    vertex 332.0 207.00000000000003 400.0
    vertex 332.00000000000006 120.00000000000003 300.0
  endloop
endfacet
facet normal -1.0 0.0 0.0
  outer loop
    vertex 332.0 3.0 10.0
    vertex 332.00000000000006 90.51111260566398 296.11771432346217
    vertex 332.0 207.00000000000003 10.0
  endloop
endfacet
facet normal -1.0 0.0 0.0
  outer loop
    vertex 332.00000000000006 90.51111260566398 296.11771432346217
    vertex 332.0 3.0 10.0
    vertex 332.00000000000006 90.0 300.0
  endloop
endfacet
facet normal -1.0 0.0 0.0
  outer loop
    vertex 332.0 207.00000000000003 10.0
    vertex 332.00000000000006 90.51111260566398 296.11771432346217
    vertex 332.00000000000006 92.00961894323342 292.5
  endloop
endfacet
facet normal -1.0 0.0 0.0
  outer loop
    vertex 332.0 207.00000000000003 10.0
    vertex 332.00000000000006 92.00961894323342 292.5
    vertex 332.00000000000006 94.3933982822018 289.39339828220176
  endloop
endfacet
facet normal -1.0 0.0 0.0
  outer loop
    vertex 332.0 207.00000000000003 10.0
    vertex 332.00000000000006 94.3933982822018 289.39339828220176
    vertex 332.00000000000006 97.5 287.0096189432334
  endloop
endfacet
facet normal -1.0 0.0 0.0
  outer loop
    vertex 332.0 207.00000000000003 10.0
    vertex 332.00000000000006 97.5 287.0096189432334
    vertex 332.00000000000006 101.11771432346221 285.511112605664
  endloop
endfacet
facet normal -1.0 0.0 0.0
  outer loop
    vertex 332.0 207.00000000000003 10.0
    vertex 332.00000000000006 101.11771432346221 285.511112605664
    vertex 332.00000000000006 105.00000000000001 285.0
  endloop
endfacet
facet normal -1.0 0.0 0.0
  outer loop
    vertex 332.0 207.00000000000003 10.0
    vertex 332.00000000000006 105.00000000000001 285.0
    vertex 332.00000000000006 108.88228567653785 285.511112605664
  endloop
endfacet
facet normal -1.0 0.0 0.0
  outer loop
    vertex 332.0 207.00000000000003 10.0
    vertex 332.00000000000006 108.88228567653785 285.511112605664
    vertex 332.00000000000006 112.50000000000001 287.0096189432334
  endloop
endfacet
facet normal -1.0 0.0 0.0
  outer loop
    vertex 332.0 207.00000000000003 10.0
    vertex 332.00000000000006 112.50000000000001 287.0096189432334
    vertex 332.00000000000006 115.60660171779823 289.39339828220176
  endloop
endfacet
facet normal -1.0 0.0 0.0
  outer loop
    vertex 332.0 207.00000000000003 10.0
    vertex 332.00000000000006 115.60660171779823 289.39339828220176
    vertex 332.00000000000006 117.99038105676661 292.5
  endloop
endfacet
facet normal -1.0 0.0 0.0
  outer loop
    vertex 332.0 207.00000000000003 10.0
    vertex 332.00000000000006 117.99038105676661 292.5
    vertex 332.00000000000006 119.48888739433606 296.11771432346217
  endloop
endfacet
facet normal -1.0 0.0 0.0
  outer loop
    vertex 332.0 207.00000000000003 10.0
    vertex 332.00000000000006 119.48888739433606 296.11771432346217
    vertex 332.00000000000006 120.00000000000003 300.0
  endloop
endfacet
facet normal -1.0 0.0 0.0
  outer loop
    vertex 332.0 207.00000000000003 10.0
    vertex 332.00000000000006 120.00000000000003 300.0
    vertex 332.0 207.00000000000003 400.0
  endloop
endfacet
facet normal -1.0 0.0 0.0
  outer loop
    vertex 0.0 210.00000000000003 400.0
    vertex 0.0 0.0 0.0
    vertex 0.0 0.0 400.0
  endloop
endfacet
facet normal -1.0 0.0 0.0
  outer loop
    vertex 0.0 0.0 0.0
    vertex 0.0 210.00000000000003 400.0
    vertex 0.0 210.00000000000003 0.0
  endloop
endfacet
facet normal 1.0 0.0 0.0
  outer loop
    vertex 3.0 3.0 0.0
    vertex 3.0 207.00000000000003 7.0
    vertex 3.0 2.9999999999999947 7.0
  endloop
endfacet
facet normal 1.0 0.0 0.0
  outer loop
    vertex 3.0 207.00000000000003 7.0
    vertex 3.0 3.0 0.0
    vertex 3.0 207.00000000000003 0.0
  endloop
endfacet
facet normal -8.571326694674461e-18 1.0 2.8199664825478977e-16
  outer loop
    vertex 3.0 2.9999999999999947 7.0
    vertex 332.0 3.0 0.0
    vertex 3.0 3.0 0.0
  endloop
endfacet
facet normal -8.571326694674461e-18 1.0 2.8199664825478977e-16
  outer loop
    vertex 332.0 3.0 0.0
    vertex 3.0 2.9999999999999947 7.0
    vertex 332.0 3.0 7.0
  endloop
endfacet
facet normal -1.0 0.0 0.0
  outer loop
    vertex 332.0 207.00000000000003 7.0
    vertex 332.0 3.0 0.0
    vertex 332.0 3.0 7.0
  endloop
endfacet
facet normal -1.0 0.0 0.0
  outer loop
    vertex 332.0 3.0 0.0
    vertex 332.0 207.00000000000003 7.0
    vertex 332.0 207.00000000000003 0.0
  endloop
endfacet
facet normal 0.0 0.0 -1.0
  outer loop
    vertex 322.5 210.00000000000003 35.0
    vertex 12.5 207.00000000000003 35.0
    vertex 12.5 210.00000000000003 35.0
  endloop
endfacet
facet normal 0.0 0.0 -1.0
  outer loop
    vertex 12.5 207.00000000000003 35.0
    vertex 322.5 210.00000000000003 35.0
    vertex 322.5 207.00000000000003 35.0
  endloop
endfacet
facet normal 1.0 0.0 0.0
  outer loop
    vertex 12.5 210.00000000000003 10.0
    vertex 12.5 207.00000000000003 35.0
    vertex 12.5 207.00000000000003 10.0
  endloop
endfacet
facet normal 1.0 0.0 0.0
  outer loop
    vertex 12.5 207.00000000000003 35.0
    vertex 12.5 210.00000000000003 10.0
    vertex 12.5 210.00000000000003 35.0
  endloop
endfacet
facet normal 0.0 -1.0 0.0
  outer loop
    vertex 332.0 207.00000000000003 10.0
    vertex 325.00000000000006 207.00000000000003 90.0
    vertex 322.5 207.00000000000003 10.0
  endloop
endfacet
facet normal 0.0 -1.0 0.0
  outer loop
    vertex 325.00000000000006 207.00000000000003 90.0
    vertex 332.0 207.00000000000003 10.0
    vertex 332.0 207.00000000000003 400.0
  endloop
endfacet
facet normal 0.0 -1.0 0.0
  outer loop
    vertex 322.5 207.00000000000003 10.0
    vertex 325.00000000000006 207.00000000000003 90.0
    vertex 322.5 207.00000000000003 35.0
  endloop
endfacet
facet normal 0.0 -1.0 0.0
  outer loop
    vertex 322.5 207.00000000000003 35.0
    vertex 325.00000000000006 207.00000000000003 90.0
    vertex 12.5 207.00000000000003 35.0
  endloop
endfacet
facet normal 0.0 -1.0 0.0
  outer loop
    vertex 325.00000000000006 207.00000000000003 90.0
    vertex 332.0 207.00000000000003 400.0
    vertex 325.00000000000006 207.00000000000003 120.0
  endloop
endfacet
facet normal 0.0 -1.0 0.0
  outer loop
    vertex 325.00000000000006 207.00000000000003 120.0
    vertex 332.0 207.00000000000003 400.0
    vertex 10.000000000000027 207.00000000000003 120.0
  endloop
endfacet
facet normal 0.0 -1.0 0.0
  outer loop
    vertex 12.5 207.00000000000003 35.0
    vertex 3.0 207.00000000000003 10.0
    vertex 12.5 207.00000000000003 10.0
  endloop
endfacet
facet normal 0.0 -1.0 0.0
  outer loop
    vertex 3.0 207.00000000000003 10.0
    vertex 12.5 207.00000000000003 35.0
    vertex 10.000000000000027 207.00000000000003 90.0
  endloop
endfacet
facet normal 0.0 -1.0 0.0
  outer loop
    vertex 3.0 207.00000000000003 10.0
    vertex 10.000000000000027 207.00000000000003 90.0
    vertex 3.0 207.00000000000003 400.0
  endloop
endfacet
facet normal 0.0 -1.0 0.0
  outer loop
    vertex 10.000000000000027 207.00000000000003 90.0
    vertex 12.5 207.00000000000003 35.0
    vertex 325.00000000000006 207.00000000000003 90.0
  endloop
endfacet
facet normal 0.0 -1.0 0.0
  outer loop
    vertex 3.0 207.00000000000003 400.0
    vertex 10.000000000000027 207.00000000000003 90.0
    vertex 10.000000000000027 207.00000000000003 120.0
  endloop
endfacet
facet normal 0.0 -1.0 0.0
  outer loop
    vertex 3.0 207.00000000000003 400.0
    vertex 10.000000000000027 207.00000000000003 120.0
    vertex 332.0 207.00000000000003 400.0
  endloop
endfacet
facet normal -1.142843559289928e-17 1.0 -7.202662321110536e-18
  outer loop
    vertex 3.0 2.9999999999999947 10.0
    vertex 10.000000000000027 3.0 90.0
    vertex 332.0 3.0 10.0
  endloop
endfacet
facet normal -1.142843559289928e-17 1.0 -7.202662321110536e-18
  outer loop
    vertex 10.000000000000027 3.0 90.0
    vertex 3.0 2.9999999999999947 10.0
    vertex 3.0 3.0 400.0
  endloop
endfacet
facet normal -1.142843559289928e-17 1.0 -7.202662321110536e-18
  outer loop
    vertex 10.000000000000027 3.0 90.0
    vertex 3.0 3.0 400.0
    vertex 10.000000000000027 3.0 120.0
  endloop
endfacet
facet normal -1.142843559289928e-17 1.0 -7.202662321110536e-18
  outer loop
    vertex 10.000000000000027 3.0 120.0
    vertex 3.0 3.0 400.0
    vertex 325.00000000000006 3.0 120.0
  endloop
endfacet
facet normal -1.142843559289928e-17 1.0 -7.202662321110536e-18
  outer loop
    vertex 332.0 3.0 10.0
    vertex 325.00000000000006 3.0 90.0
    vertex 332.0 3.0 400.0
  endloop
endfacet
facet normal -1.142843559289928e-17 1.0 -7.202662321110536e-18
  outer loop
    vertex 325.00000000000006 3.0 90.0
    vertex 332.0 3.0 10.0
    vertex 10.000000000000027 3.0 90.0
  endloop
endfacet
facet normal -1.142843559289928e-17 1.0 -7.202662321110536e-18
  outer loop
    vertex 332.0 3.0 400.0
    vertex 325.00000000000006 3.0 90.0
    vertex 325.00000000000006 3.0 120.0
  endloop
endfacet
facet normal -1.142843559289928e-17 1.0 -7.202662321110536e-18
  outer loop
    vertex 332.0 3.0 400.0
    vertex 325.00000000000006 3.0 120.0
    vertex 3.0 3.0 400.0
  endloop
endfacet
facet normal 1.0 0.0 0.0
  outer loop
    vertex 10.000000000000027 210.00000000000003 90.0
    vertex 10.000000000000027 207.00000000000003 120.0
    vertex 10.000000000000027 207.00000000000003 90.0
  endloop
endfacet
facet normal 1.0 0.0 0.0
  outer loop
    vertex 10.000000000000027 207.00000000000003 120.0
    vertex 10.000000000000027 210.00000000000003 90.0
    vertex 10.000000000000027 210.00000000000003 120.0
  endloop
endfacet
facet normal 0.0 0.0 1.0
  outer loop
    vertex 325.00000000000006 207.00000000000003 90.0
    vertex 10.000000000000027 210.00000000000003 90.0
    vertex 10.000000000000027 207.00000000000003 90.0
  endloop
endfacet
facet normal 0.0 0.0 1.0
  outer loop
    vertex 10.000000000000027 210.00000000000003 90.0
    vertex 325.00000000000006 207.00000000000003 90.0
    vertex 325.00000000000006 210.00000000000003 90.0
  endloop
endfacet
facet normal -1.0 0.0 0.0
  outer loop
    vertex 325.00000000000006 210.00000000000003 120.0
    vertex 325.00000000000006 207.00000000000003 90.0
    vertex 325.00000000000006 207.00000000000003 120.0
  endloop
endfacet
facet normal -1.0 0.0 0.0
  outer loop
    vertex 325.00000000000006 207.00000000000003 90.0
    vertex 325.00000000000006 210.00000000000003 120.0
    vertex 325.00000000000006 210.00000000000003 90.0
  endloop
endfacet
facet normal 0.0 1.0 0.0
  outer loop
    vertex 0.0 210.00000000000003 0.0
    vertex 12.5 210.00000000000003 10.0
    vertex 335.0 210.00000000000003 0.0
  endloop
endfacet
facet normal 0.0 1.0 0.0
  outer loop
    vertex 12.5 210.00000000000003 10.0
    vertex 0.0 210.00000000000003 0.0
    vertex 0.0 210.00000000000003 400.0
  endloop
endfacet
facet normal 0.0 1.0 0.0
  outer loop
    vertex 12.5 210.00000000000003 10.0
    vertex 0.0 210.00000000000003 400.0
    vertex 10.000000000000027 210.00000000000003 90.0
  endloop
endfacet
facet normal 0.0 1.0 0.0
  outer loop
    vertex 12.5 210.00000000000003 10.0
    vertex 10.000000000000027 210.00000000000003 90.0
    vertex 12.5 210.00000000000003 35.0
  endloop
endfacet
facet normal 0.0 1.0 0.0
  outer loop
    vertex 12.5 210.00000000000003 35.0
    vertex 10.000000000000027 210.00000000000003 90.0
    vertex 322.5 210.00000000000003 35.0
  endloop
endfacet
facet normal 0.0 1.0 0.0
  outer loop
    vertex 10.000000000000027 210.00000000000003 90.0
    vertex 0.0 210.00000000000003 400.0
    vertex 10.000000000000027 210.00000000000003 120.0
  endloop
endfacet
facet normal 0.0 1.0 0.0
  outer loop
    vertex 10.000000000000027 210.00000000000003 120.0
    vertex 0.0 210.00000000000003 400.0
    vertex 325.00000000000006 210.00000000000003 120.0
  endloop
endfacet
facet normal 0.0 1.0 0.0
  outer loop
    vertex 335.0 210.00000000000003 0.0
    vertex 322.5 210.00000000000003 10.0
    vertex 335.0 210.00000000000003 400.0
  endloop
endfacet
facet normal 0.0 1.0 0.0
  outer loop
    vertex 322.5 210.00000000000003 10.0
    vertex 335.0 210.00000000000003 0.0
    vertex 12.5 210.00000000000003 10.0
  endloop
endfacet
facet normal 0.0 1.0 0.0
  outer loop
    vertex 335.0 210.00000000000003 400.0
    vertex 322.5 210.00000000000003 10.0
    vertex 325.00000000000006 210.00000000000003 90.0
  endloop
endfacet
facet normal 0.0 1.0 0.0
  outer loop
    vertex 325.00000000000006 210.00000000000003 90.0
    vertex 322.5 210.00000000000003 10.0
    vertex 322.5 210.00000000000003 35.0
  endloop
endfacet
facet normal 0.0 1.0 0.0
  outer loop
    vertex 325.00000000000006 210.00000000000003 90.0
    vertex 322.5 210.00000000000003 35.0
    vertex 10.000000000000027 210.00000000000003 90.0
  endloop
endfacet
facet normal 0.0 1.0 0.0
  outer loop
    vertex 335.0 210.00000000000003 400.0
    vertex 325.00000000000006 210.00000000000003 90.0
    vertex 325.00000000000006 210.00000000000003 120.0
  endloop
endfacet
facet normal 0.0 1.0 0.0
  outer loop
    vertex 335.0 210.00000000000003 400.0
    vertex 325.00000000000006 210.00000000000003 120.0
    vertex 0.0 210.00000000000003 400.0
  endloop
endfacet
facet normal -0.0 -0.0 -1.0
  outer loop
    vertex 325.00000000000006 210.00000000000003 120.0
    vertex 10.000000000000027 207.00000000000003 120.0
    vertex 10.000000000000027 210.00000000000003 120.0
  endloop
endfacet
facet normal -0.0 -0.0 -1.0
  outer loop
    vertex 10.000000000000027 207.00000000000003 120.0
    vertex 325.00000000000006 210.00000000000003 120.0
    vertex 325.00000000000006 207.00000000000003 120.0
  endloop
endfacet
facet normal 1.0 0.0 0.0
  outer loop
    vertex 10.000000000000027 3.0 90.0
    vertex 10.000000000000027 0.0 120.0
    vertex 10.000000000000027 0.0 90.0
  endloop
endfacet
facet normal 1.0 0.0 0.0
  outer loop
    vertex 10.000000000000027 0.0 120.0
    vertex 10.000000000000027 3.0 90.0
    vertex 10.000000000000027 3.0 120.0
  endloop
endfacet
facet normal 0.0 0.0 1.0
  outer loop
    vertex 325.00000000000006 0.0 90.0
    vertex 10.000000000000027 3.0 90.0
    vertex 10.000000000000027 0.0 90.0
  endloop
endfacet
facet normal 0.0 0.0 1.0
  outer loop
    vertex 10.000000000000027 3.0 90.0
    vertex 325.00000000000006 0.0 90.0
    vertex 325.00000000000006 3.0 90.0
  endloop
endfacet
facet normal -1.0 0.0 0.0
  outer loop
    vertex 325.00000000000006 3.0 120.0
    vertex 325.00000000000006 0.0 90.0
    vertex 325.00000000000006 0.0 120.0
  endloop
endfacet
facet normal -1.0 0.0 0.0
  outer loop
    vertex 325.00000000000006 0.0 90.0
    vertex 325.00000000000006 3.0 120.0
    vertex 325.00000000000006 3.0 90.0
  endloop
endfacet
facet normal -0.0 -0.0 -1.0
  outer loop
    vertex 325.00000000000006 3.0 120.0
    vertex 10.000000000000027 0.0 120.0
    vertex 10.000000000000027 3.0 120.0
  endloop
endfacet
facet normal -0.0 -0.0 -1.0
  outer loop
    vertex 10.000000000000027 0.0 120.0
    vertex 325.00000000000006 3.0 120.0
    vertex 325.00000000000006 0.0 120.0
  endloop
endfacet
facet normal -1.0 0.0 0.0
  outer loop
    vertex 322.5 210.00000000000003 35.0
    vertex 322.5 207.00000000000003 10.0
    vertex 322.5 207.00000000000003 35.0
  endloop
endfacet
facet normal -1.0 0.0 0.0
  outer loop
    vertex 322.5 207.00000000000003 10.0
    vertex 322.5 210.00000000000003 35.0
    vertex 322.5 210.00000000000003 10.0
  endloop
endfacet
facet normal 0.0 0.0 1.0
  outer loop
    vertex 322.5 207.00000000000003 10.0
    vertex 12.5 210.00000000000003 10.0
    vertex 12.5 207.00000000000003 10.0
  endloop
endfacet
facet normal 0.0 0.0 1.0
  outer loop
    vertex 12.5 210.00000000000003 10.0
    vertex 322.5 207.00000000000003 10.0
    vertex 322.5 210.00000000000003 10.0
  endloop
endfacet
facet normal 0.0 -1.0 0.0
  outer loop
    vertex 332.0 207.00000000000003 7.0
    vertex 3.0 207.00000000000003 0.0
    vertex 332.0 207.00000000000003 0.0
  endloop
endfacet
facet normal 0.0 -1.0 0.0
  outer loop
    vertex 3.0 207.00000000000003 0.0
    vertex 332.0 207.00000000000003 7.0
    vertex 3.0 207.00000000000003 7.0
  endloop
endfacet
facet normal -0.0 -0.0 -1.0
  outer loop
    vertex 332.0 207.00000000000003 7.0
    vertex 3.0 2.9999999999999947 7.0
    vertex 3.0 207.00000000000003 7.0
  endloop
endfacet
facet normal -0.0 -0.0 -1.0
  outer loop
    vertex 3.0 2.9999999999999947 7.0
    vertex 332.0 207.00000000000003 7.0
    vertex 332.0 3.0 7.0
  endloop
endfacet
facet normal 0.0 0.0 1.0
  outer loop
    vertex 332.0 3.0 10.0
    vertex 3.0 207.00000000000003 10.0
    vertex 3.0 2.9999999999999947 10.0
  endloop
endfacet
facet normal 0.0 0.0 1.0
  outer loop
    vertex 3.0 207.00000000000003 10.0
    vertex 332.0 3.0 10.0
    vertex 12.5 207.00000000000003 10.0
  endloop
endfacet
facet normal 0.0 0.0 1.0
  outer loop
    vertex 12.5 207.00000000000003 10.0
    vertex 332.0 3.0 10.0
    vertex 322.5 207.00000000000003 10.0
  endloop
endfacet
facet normal 0.0 0.0 1.0
  outer loop
    vertex 322.5 207.00000000000003 10.0
    vertex 332.0 3.0 10.0
    vertex 332.0 207.00000000000003 10.0
  endloop
endfacet
facet normal -0.0 -0.13052619222005613 -0.9914448613738099
  outer loop
    vertex 335.0 108.88228567653782 314.488887394336
    vertex 332.00000000000006 105.00000000000001 315.0
    vertex 332.00000000000006 108.88228567653782 314.488887394336
  endloop
endfacet
facet normal -0.0 -0.13052619222005613 -0.9914448613738099
  outer loop
    vertex 332.00000000000006 105.00000000000001 315.0
    vertex 335.0 108.88228567653782 314.488887394336
    vertex 335.0 105.00000000000001 315.0
  endloop
endfacet
facet normal 0.0 0.13052619222005538 -0.9914448613738099
  outer loop
    vertex 335.0 105.00000000000001 315.0
    vertex 332.00000000000006 101.11771432346218 314.488887394336
    vertex 332.00000000000006 105.00000000000001 315.0
  endloop
endfacet
facet normal 0.0 0.13052619222005538 -0.9914448613738099
  outer loop
    vertex 332.00000000000006 101.11771432346218 314.488887394336
    vertex 335.0 105.00000000000001 315.0
    vertex 335.0 101.11771432346218 314.488887394336
  endloop
endfacet
facet normal 0.0 0.38268343236508673 -0.923879532511288
  outer loop
    vertex 335.0 101.11771432346218 314.488887394336
    vertex 332.00000000000006 97.49999999999999 312.9903810567666
    vertex 332.00000000000006 101.11771432346218 314.488887394336
  endloop
endfacet
facet normal 0.0 0.38268343236508673 -0.923879532511288
  outer loop
    vertex 332.00000000000006 97.49999999999999 312.9903810567666
    vertex 335.0 101.11771432346218 314.488887394336
    vertex 335.0 97.49999999999999 312.9903810567666
  endloop
endfacet
facet normal 0.0 0.6087614290087192 -0.7933533402912364
  outer loop
    vertex 335.0 97.49999999999999 312.9903810567666
    vertex 332.00000000000006 94.39339828220179 310.60660171779824
    vertex 332.00000000000006 97.49999999999999 312.9903810567666
  endloop
endfacet
facet normal 0.0 0.6087614290087192 -0.7933533402912364
  outer loop
    vertex 332.00000000000006 94.39339828220179 310.60660171779824
    vertex 335.0 97.49999999999999 312.9903810567666
    vertex 335.0 94.39339828220179 310.60660171779824
  endloop
endfacet
facet normal 0.0 0.7933533402912356 -0.60876142900872
  outer loop
    vertex 332.00000000000006 94.39339828220179 310.60660171779824
    vertex 335.0 92.0096189432334 307.5
    vertex 332.00000000000006 92.0096189432334 307.5
  endloop
endfacet
facet normal 0.0 0.7933533402912356 -0.60876142900872
  outer loop
    vertex 335.0 92.0096189432334 307.5
    vertex 332.00000000000006 94.39339828220179 310.60660171779824
    vertex 335.0 94.39339828220179 310.60660171779824
  endloop
endfacet
facet normal 0.0 0.9238795325112866 -0.3826834323650902
  outer loop
    vertex 332.00000000000006 92.0096189432334 307.5
    vertex 335.0 90.51111260566397 303.88228567653783
    vertex 332.00000000000006 90.51111260566397 303.88228567653783
  endloop
endfacet
facet normal 0.0 0.9238795325112866 -0.3826834323650902
  outer loop
    vertex 335.0 90.51111260566397 303.88228567653783
    vertex 332.00000000000006 92.0096189432334 307.5
    vertex 335.0 92.0096189432334 307.5
  endloop
endfacet
facet normal 0.0 0.9914448613738106 -0.13052619222004969
  outer loop
    vertex 332.00000000000006 90.51111260566397 303.88228567653783
    vertex 335.0 90.0 300.0
    vertex 332.00000000000006 90.0 300.0
  endloop
endfacet
facet normal 0.0 0.9914448613738106 -0.13052619222004969
  outer loop
    vertex 335.0 90.0 300.0
    vertex 332.00000000000006 90.51111260566397 303.88228567653783
    vertex 335.0 90.51111260566397 303.88228567653783
  endloop
endfacet
facet normal 0.0 0.9914448613738103 0.13052619222005252
  outer loop
    vertex 332.00000000000006 90.0 300.0
    vertex 335.0 90.51111260566398 296.11771432346217
    vertex 332.00000000000006 90.51111260566398 296.11771432346217
  endloop
endfacet
facet normal 0.0 0.9914448613738103 0.13052619222005252
  outer loop
    vertex 335.0 90.51111260566398 296.11771432346217
    vertex 332.00000000000006 90.0 300.0
    vertex 335.0 90.0 300.0
  endloop
endfacet
facet normal 0.0 0.9238795325112866 0.3826834323650902
  outer loop
    vertex 332.00000000000006 90.51111260566398 296.11771432346217
    vertex 335.0 92.00961894323342 292.5
    vertex 332.00000000000006 92.00961894323342 292.5
  endloop
endfacet
facet normal 0.0 0.9238795325112866 0.3826834323650902
  outer loop
    vertex 335.0 92.00961894323342 292.5
    vertex 332.00000000000006 90.51111260566398 296.11771432346217
    vertex 335.0 90.51111260566398 296.11771432346217
  endloop
endfacet
facet normal 0.0 0.7933533402912356 0.60876142900872
  outer loop
    vertex 332.00000000000006 92.00961894323342 292.5
    vertex 335.0 94.3933982822018 289.39339828220176
    vertex 332.00000000000006 94.3933982822018 289.39339828220176
  endloop
endfacet
facet normal 0.0 0.7933533402912356 0.60876142900872
  outer loop
    vertex 335.0 94.3933982822018 289.39339828220176
    vertex 332.00000000000006 92.00961894323342 292.5
    vertex 335.0 92.00961894323342 292.5
  endloop
endfacet
facet normal 0.0 0.6087614290087192 0.7933533402912364
  outer loop
    vertex 335.0 94.3933982822018 289.39339828220176
    vertex 332.00000000000006 97.5 287.0096189432334
    vertex 332.00000000000006 94.3933982822018 289.39339828220176
  endloop
endfacet
facet normal 0.0 0.6087614290087192 0.7933533402912364
  outer loop
    vertex 332.00000000000006 97.5 287.0096189432334
    vertex 335.0 94.3933982822018 289.39339828220176
    vertex 335.0 97.5 287.0096189432334
  endloop
endfacet
facet normal 0.0 0.38268343236508573 0.9238795325112885
  outer loop
    vertex 335.0 97.5 287.0096189432334
    vertex 332.00000000000006 101.11771432346221 285.511112605664
    vertex 332.00000000000006 97.5 287.0096189432334
  endloop
endfacet
facet normal 0.0 0.38268343236508573 0.9238795325112885
  outer loop
    vertex 332.00000000000006 101.11771432346221 285.511112605664
    vertex 335.0 97.5 287.0096189432334
    vertex 335.0 101.11771432346221 285.511112605664
  endloop
endfacet
facet normal 0.0 0.13052619222005613 0.9914448613738099
  outer loop
    vertex 335.0 101.11771432346221 285.511112605664
    vertex 332.00000000000006 105.00000000000001 285.0
    vertex 332.00000000000006 101.11771432346221 285.511112605664
  endloop
endfacet
facet normal 0.0 0.13052619222005613 0.9914448613738099
  outer loop
    vertex 332.00000000000006 105.00000000000001 285.0
    vertex 335.0 101.11771432346221 285.511112605664
    vertex 335.0 105.00000000000001 285.0
  endloop
endfacet
facet normal 0.0 -0.13052619222005538 0.9914448613738099
  outer loop
    vertex 335.0 105.00000000000001 285.0
    vertex 332.00000000000006 108.88228567653785 285.511112605664
    vertex 332.00000000000006 105.00000000000001 285.0
  endloop
endfacet
facet normal 0.0 -0.13052619222005538 0.9914448613738099
  outer loop
    vertex 332.00000000000006 108.88228567653785 285.511112605664
    vertex 335.0 105.00000000000001 285.0
    vertex 335.0 108.88228567653785 285.511112605664
  endloop
endfacet
facet normal 0.0 -0.3826834323650878 0.9238795325112876
  outer loop
    vertex 335.0 108.88228567653785 285.511112605664
    vertex 332.00000000000006 112.50000000000001 287.0096189432334
    vertex 332.00000000000006 108.88228567653785 285.511112605664
  endloop
endfacet
facet normal 0.0 -0.3826834323650878 0.9238795325112876
  outer loop
    vertex 332.00000000000006 112.50000000000001 287.0096189432334
    vertex 335.0 108.88228567653785 285.511112605664
    vertex 335.0 112.50000000000001 287.0096189432334
  endloop
endfacet
facet normal 0.0 -0.6087614290087192 0.7933533402912364
  outer loop
    vertex 335.0 112.50000000000001 287.0096189432334
    vertex 332.00000000000006 115.60660171779823 289.39339828220176
    vertex 332.00000000000006 112.50000000000001 287.0096189432334
  endloop
endfacet
facet normal 0.0 -0.6087614290087192 0.7933533402912364
  outer loop
    vertex 332.00000000000006 115.60660171779823 289.39339828220176
    vertex 335.0 112.50000000000001 287.0096189432334
    vertex 335.0 115.60660171779823 289.39339828220176
  endloop
endfacet
facet normal 0.0 -0.7933533402912356 0.60876142900872
  outer loop
    vertex 335.0 117.99038105676661 292.5
    vertex 332.00000000000006 115.60660171779823 289.39339828220176
    vertex 335.0 115.60660171779823 289.39339828220176
  endloop
endfacet
facet normal 0.0 -0.7933533402912356 0.60876142900872
  outer loop
    vertex 332.00000000000006 115.60660171779823 289.39339828220176
    vertex 335.0 117.99038105676661 292.5
    vertex 332.00000000000006 117.99038105676661 292.5
  endloop
endfacet
facet normal 0.0 -0.9238795325112856 0.3826834323650927
  outer loop
    vertex 335.0 119.48888739433606 296.11771432346217
    vertex 332.00000000000006 117.99038105676661 292.5
    vertex 335.0 117.99038105676661 292.5
  endloop
endfacet
facet normal 0.0 -0.9238795325112856 0.3826834323650927
  outer loop
    vertex 332.00000000000006 117.99038105676661 292.5
    vertex 335.0 119.48888739433606 296.11771432346217
    vertex 332.00000000000006 119.48888739433606 296.11771432346217
  endloop
endfacet
facet normal 0.0 -0.9914448613738106 0.13052619222004969
  outer loop
    vertex 335.0 120.00000000000003 300.0
    vertex 332.00000000000006 119.48888739433606 296.11771432346217
    vertex 335.0 119.48888739433606 296.11771432346217
  endloop
endfacet
facet normal 0.0 -0.9914448613738106 0.13052619222004969
  outer loop
    vertex 332.00000000000006 119.48888739433606 296.11771432346217
    vertex 335.0 120.00000000000003 300.0
    vertex 332.00000000000006 120.00000000000003 300.0
  endloop
endfacet
facet normal -0.0 -0.9914448613738106 -0.13052619222004969
  outer loop
    vertex 335.0 119.48888739433606 303.88228567653783
    vertex 332.00000000000006 120.00000000000003 300.0
    vertex 335.0 120.00000000000003 300.0
  endloop
endfacet
facet normal -0.0 -0.9914448613738106 -0.13052619222004969
  outer loop
    vertex 332.00000000000006 120.00000000000003 300.0
    vertex 335.0 119.48888739433606 303.88228567653783
    vertex 332.00000000000006 119.48888739433606 303.88228567653783
  endloop
endfacet
facet normal -0.0 -0.9238795325112856 -0.3826834323650927
  outer loop
    vertex 335.0 117.99038105676661 307.5
    vertex 332.00000000000006 119.48888739433606 303.88228567653783
    vertex 335.0 119.48888739433606 303.88228567653783
  endloop
endfacet
facet normal -0.0 -0.9238795325112856 -0.3826834323650927
  outer loop
    vertex 332.00000000000006 119.48888739433606 303.88228567653783
    vertex 335.0 117.99038105676661 307.5
    vertex 332.00000000000006 117.99038105676661 307.5
  endloop
endfacet
facet normal -0.0 -0.7933533402912356 -0.60876142900872
  outer loop
    vertex 335.0 115.60660171779823 310.60660171779824
    vertex 332.00000000000006 117.99038105676661 307.5
    vertex 335.0 117.99038105676661 307.5
  endloop
endfacet
facet normal -0.0 -0.7933533402912356 -0.60876142900872
  outer loop
    vertex 332.00000000000006 117.99038105676661 307.5
    vertex 335.0 115.60660171779823 310.60660171779824
    vertex 332.00000000000006 115.60660171779823 310.60660171779824
  endloop
endfacet
facet normal -0.0 -0.6087614290087192 -0.7933533402912364
  outer loop
    vertex 335.0 115.60660171779823 310.60660171779824
    vertex 332.00000000000006 112.50000000000001 312.9903810567666
    vertex 332.00000000000006 115.60660171779823 310.60660171779824
  endloop
endfacet
facet normal -0.0 -0.6087614290087192 -0.7933533402912364
  outer loop
    vertex 332.00000000000006 112.50000000000001 312.9903810567666
    vertex 335.0 115.60660171779823 310.60660171779824
    vertex 335.0 112.50000000000001 312.9903810567666
  endloop
endfacet
facet normal -0.0 -0.38268343236508573 -0.9238795325112885
  outer loop
    vertex 335.0 112.50000000000001 312.9903810567666
    vertex 332.00000000000006 108.88228567653782 314.488887394336
    vertex 332.00000000000006 112.50000000000001 312.9903810567666
  endloop
endfacet
facet normal -0.0 -0.38268343236508573 -0.9238795325112885
  outer loop
    vertex 332.00000000000006 108.88228567653782 314.488887394336
    vertex 335.0 112.50000000000001 312.9903810567666
    vertex 335.0 108.88228567653782 314.488887394336
  endloop
endfacet
endsolid Untitled-5d49d1d1
