solid Untitled-5bb683dc
facet normal 0.0 0.0 1.0
  outer loop
    vertex 426.93603439888665 311.5803002271649 5.999999999999966
    vertex 286.9360343988868 416.58030022716486 5.999999999999966
    vertex 286.9360343988868 311.5803002271649 5.999999999999966
  endloop
endfacet
facet normal 0.0 0.0 1.0
  outer loop
    vertex 286.9360343988868 416.58030022716486 5.999999999999966
    vertex 426.93603439888665 311.5803002271649 5.999999999999966
    vertex 426.93603439888665 416.58030022716486 5.999999999999966
  endloop
endfacet
facet normal 0.0 0.0 -1.0
  outer loop
    vertex 286.9360343988868 416.58030022716486 2.999999999999972
    vertex 289.9360343988869 399.5803002271649 2.999999999999972
    vertex 286.9360343988868 311.5803002271649 2.999999999999972
  endloop
endfacet
facet normal 0.0 0.0 -1.0
  outer loop
    vertex 289.9360343988869 399.5803002271649 2.999999999999972
    vertex 286.9360343988868 416.58030022716486 2.999999999999972
    vertex 303.9360343988869 413.58030022716497 2.999999999999972
  endloop
endfacet
facet normal 0.0 0.0 -1.0
  outer loop
    vertex 303.9360343988869 413.58030022716497 2.999999999999972
    vertex 286.9360343988868 416.58030022716486 2.999999999999972
    vertex 426.93603439888665 416.58030022716486 2.999999999999972
  endloop
endfacet
facet normal 0.0 0.0 -1.0
  outer loop
    vertex 289.9360343988869 399.5803002271649 2.999999999999972
    vertex 303.9360343988869 413.58030022716497 2.999999999999972
    vertex 292.9360343988868 399.5803002271649 2.999999999999972
  endloop
endfacet
facet normal 0.0 0.0 -1.0
  outer loop
    vertex 292.9360343988868 399.5803002271649 2.999999999999972
    vertex 303.9360343988869 413.58030022716497 2.999999999999972
    vertex 292.9360343988868 311.5803002271649 2.999999999999972
  endloop
endfacet
facet normal 0.0 0.0 -1.0
  outer loop
    vertex 303.9360343988869 413.58030022716497 2.999999999999972
    vertex 426.93603439888665 416.58030022716486 2.999999999999972
    vertex 423.9360343988867 413.58030022716497 2.999999999999972
  endloop
endfacet
facet normal 0.0 0.0 -1.0
  outer loop
    vertex 423.9360343988867 413.58030022716497 2.999999999999972
    vertex 426.93603439888665 416.58030022716486 2.999999999999972
    vertex 423.9360343988867 311.5803002271649 2.999999999999972
  endloop
endfacet
facet normal 0.0 0.0 -1.0
  outer loop
    vertex 423.9360343988867 311.5803002271649 2.999999999999972
    vertex 426.93603439888665 416.58030022716486 2.999999999999972
    vertex 426.93603439888665 311.5803002271649 2.999999999999972
  endloop
endfacet
facet normal 0.0 0.0 -1.0
  outer loop
    vertex 292.9360343988868 311.5803002271649 2.999999999999972
    vertex 303.9360343988869 410.5803002271649 2.999999999999972
    vertex 420.93603439888665 311.5803002271649 2.999999999999972
  endloop
endfacet
facet normal 0.0 0.0 -1.0
  outer loop
    vertex 303.9360343988869 410.5803002271649 2.999999999999972
    vertex 292.9360343988868 311.5803002271649 2.999999999999972
    vertex 303.9360343988869 413.58030022716497 2.999999999999972
  endloop
endfacet
facet normal 0.0 0.0 -1.0
  outer loop
    vertex 420.93603439888665 311.5803002271649 2.999999999999972
    vertex 303.9360343988869 410.5803002271649 2.999999999999972
    vertex 420.93603439888665 410.5803002271649 2.999999999999972
  endloop
endfacet
facet normal 0.0 0.0 -1.0
  outer loop
    vertex 289.9360343988869 311.5803002271649 2.999999999999972
    vertex 286.9360343988868 311.5803002271649 2.999999999999972
    vertex 289.9360343988869 399.5803002271649 2.999999999999972
  endloop
endfacet
facet normal -1.0 0.0 0.0
  outer loop
    vertex 303.9360343988869 413.58030022716497 2.999999999999972
    vertex 303.9360343988869 410.5803002271649 0.0
    vertex 303.9360343988869 410.5803002271649 2.999999999999972
  endloop
endfacet
facet normal -1.0 0.0 0.0
  outer loop
    vertex 303.9360343988869 410.5803002271649 0.0
    vertex 303.9360343988869 413.58030022716497 2.999999999999972
    vertex 303.9360343988869 413.58030022716497 0.0
  endloop
endfacet
facet normal 0.0 1.0 0.0
  outer loop
    vertex 289.9360343988869 399.5803002271649 2.999999999999972
    vertex 292.9360343988868 399.5803002271649 0.0
    vertex 289.9360343988869 399.5803002271649 0.0
  endloop
endfacet
facet normal 0.0 1.0 0.0
  outer loop
    vertex 292.9360343988868 399.5803002271649 0.0
    vertex 289.9360343988869 399.5803002271649 2.999999999999972
    vertex 292.9360343988868 399.5803002271649 2.999999999999972
  endloop
endfacet
facet normal 0.0 1.0 0.0
  outer loop
    vertex 286.9360343988868 311.5803002271649 5.999999999999966
    vertex 289.9360343988869 311.5803002271649 2.999999999999972
    vertex 286.9360343988868 311.5803002271649 2.999999999999972
  endloop
endfacet
facet normal 0.0 1.0 0.0
  outer loop
    vertex 289.9360343988869 311.5803002271649 2.999999999999972
    vertex 286.9360343988868 311.5803002271649 5.999999999999966
    vertex 292.9360343988868 311.5803002271649 2.999999999999972
  endloop
endfacet
facet normal 0.0 1.0 0.0
  outer loop
    vertex 292.9360343988868 311.5803002271649 2.999999999999972
    vertex 286.9360343988868 311.5803002271649 5.999999999999966
    vertex 420.93603439888665 311.5803002271649 2.999999999999972
  endloop
endfacet
facet normal 0.0 1.0 0.0
  outer loop
    vertex 420.93603439888665 311.5803002271649 2.999999999999972
    vertex 286.9360343988868 311.5803002271649 5.999999999999966
    vertex 423.9360343988867 311.5803002271649 2.999999999999972
  endloop
endfacet
facet normal 0.0 1.0 0.0
  outer loop
    vertex 423.9360343988867 311.5803002271649 2.999999999999972
    vertex 286.9360343988868 311.5803002271649 5.999999999999966
    vertex 426.93603439888665 311.5803002271649 2.999999999999972
  endloop
endfacet
facet normal 0.0 1.0 0.0
  outer loop
    vertex 426.93603439888665 311.5803002271649 2.999999999999972
    vertex 286.9360343988868 311.5803002271649 5.999999999999966
    vertex 426.93603439888665 311.5803002271649 5.999999999999966
  endloop
endfacet
facet normal 0.0 1.0 0.0
  outer loop
    vertex 420.93603439888665 311.5803002271649 2.999999999999972
    vertex 423.9360343988867 311.5803002271649 0.0
    vertex 420.93603439888665 311.5803002271649 0.0
  endloop
endfacet
facet normal 0.0 1.0 0.0
  outer loop
    vertex 423.9360343988867 311.5803002271649 0.0
    vertex 420.93603439888665 311.5803002271649 2.999999999999972
    vertex 423.9360343988867 311.5803002271649 2.999999999999972
  endloop
endfacet
facet normal 0.0 1.0 0.0
  outer loop
    vertex 289.9360343988869 311.5803002271649 2.999999999999972
    vertex 292.9360343988868 311.5803002271649 0.0
    vertex 289.9360343988869 311.5803002271649 0.0
  endloop
endfacet
facet normal 0.0 1.0 0.0
  outer loop
    vertex 292.9360343988868 311.5803002271649 0.0
    vertex 289.9360343988869 311.5803002271649 2.999999999999972
    vertex 292.9360343988868 311.5803002271649 2.999999999999972
  endloop
endfacet
facet normal -1.0 0.0 0.0
  outer loop
    vertex 286.9360343988868 416.58030022716486 5.999999999999966
    vertex 286.9360343988868 311.5803002271649 2.999999999999972
    vertex 286.9360343988868 311.5803002271649 5.999999999999966
  endloop
endfacet
facet normal -1.0 0.0 0.0
  outer loop
    vertex 286.9360343988868 311.5803002271649 2.999999999999972
    vertex 286.9360343988868 416.58030022716486 5.999999999999966
    vertex 286.9360343988868 416.58030022716486 2.999999999999972
  endloop
endfacet
facet normal -1.0 0.0 0.0
  outer loop
    vertex 420.93603439888665 410.5803002271649 2.999999999999972
    vertex 420.93603439888665 311.5803002271649 0.0
    vertex 420.93603439888665 311.5803002271649 2.999999999999972
  endloop
endfacet
facet normal -1.0 0.0 0.0
  outer loop
    vertex 420.93603439888665 311.5803002271649 0.0
    vertex 420.93603439888665 410.5803002271649 2.999999999999972
    vertex 420.93603439888665 410.5803002271649 0.0
  endloop
endfacet
facet normal 1.0 0.0 0.0
  outer loop
    vertex 423.9360343988867 413.58030022716497 0.0
    vertex 423.9360343988867 311.5803002271649 2.999999999999972
    vertex 423.9360343988867 311.5803002271649 0.0
  endloop
endfacet
facet normal 1.0 0.0 0.0
  outer loop
    vertex 423.9360343988867 311.5803002271649 2.999999999999972
    vertex 423.9360343988867 413.58030022716497 0.0
    vertex 423.9360343988867 413.58030022716497 2.999999999999972
  endloop
endfacet
facet normal 0.0 1.0 0.0
  outer loop
    vertex 303.9360343988869 413.58030022716497 2.999999999999972
    vertex 423.9360343988867 413.58030022716497 0.0
    vertex 303.9360343988869 413.58030022716497 0.0
  endloop
endfacet
facet normal 0.0 1.0 0.0
  outer loop
    vertex 423.9360343988867 413.58030022716497 0.0
    vertex 303.9360343988869 413.58030022716497 2.999999999999972
    vertex 423.9360343988867 413.58030022716497 2.999999999999972
  endloop
endfacet
facet normal 1.0 0.0 0.0
  outer loop
    vertex 426.93603439888665 416.58030022716486 2.999999999999972
    vertex 426.93603439888665 311.5803002271649 5.999999999999966
    vertex 426.93603439888665 311.5803002271649 2.999999999999972
  endloop
endfacet
facet normal 1.0 0.0 0.0
  outer loop
    vertex 426.93603439888665 311.5803002271649 5.999999999999966
    vertex 426.93603439888665 416.58030022716486 2.999999999999972
    vertex 426.93603439888665 416.58030022716486 5.999999999999966
  endloop
endfacet
facet normal 0.0 1.0 0.0
  outer loop
    vertex 286.9360343988868 416.58030022716486 5.999999999999966
    vertex 426.93603439888665 416.58030022716486 2.999999999999972
    vertex 286.9360343988868 416.58030022716486 2.999999999999972
  endloop
endfacet
facet normal 0.0 1.0 0.0
  outer loop
    vertex 426.93603439888665 416.58030022716486 2.999999999999972
    vertex 286.9360343988868 416.58030022716486 5.999999999999966
    vertex 426.93603439888665 416.58030022716486 5.999999999999966
  endloop
endfacet
facet normal 1.0 0.0 0.0
  outer loop
    vertex 292.9360343988868 399.5803002271649 0.0
    vertex 292.9360343988868 311.5803002271649 2.999999999999972
    vertex 292.9360343988868 311.5803002271649 0.0
  endloop
endfacet
facet normal 1.0 0.0 0.0
  outer loop
    vertex 292.9360343988868 311.5803002271649 2.999999999999972
    vertex 292.9360343988868 399.5803002271649 0.0
    vertex 292.9360343988868 399.5803002271649 2.999999999999972
  endloop
endfacet
facet normal -1.0 0.0 0.0
  outer loop
    vertex 289.9360343988869 399.5803002271649 2.999999999999972
    vertex 289.9360343988869 311.5803002271649 0.0
    vertex 289.9360343988869 311.5803002271649 2.999999999999972
  endloop
endfacet
facet normal -1.0 0.0 0.0
  outer loop
    vertex 289.9360343988869 311.5803002271649 0.0
    vertex 289.9360343988869 399.5803002271649 2.999999999999972
    vertex 289.9360343988869 399.5803002271649 0.0
  endloop
endfacet
facet normal 0.0 -1.0 0.0
  outer loop
    vertex 420.93603439888665 410.5803002271649 2.999999999999972
    vertex 303.9360343988869 410.5803002271649 0.0
    vertex 420.93603439888665 410.5803002271649 0.0
  endloop
endfacet
facet normal 0.0 -1.0 0.0
  outer loop
    vertex 303.9360343988869 410.5803002271649 0.0
    vertex 420.93603439888665 410.5803002271649 2.999999999999972
    vertex 303.9360343988869 410.5803002271649 2.999999999999972
  endloop
endfacet
facet normal 0.0 0.0 -1.0
  outer loop
    vertex 292.9360343988868 399.5803002271649 0.0
    vertex 289.9360343988869 311.5803002271649 0.0
    vertex 289.9360343988869 399.5803002271649 0.0
  endloop
endfacet
facet normal 0.0 0.0 -1.0
  outer loop
    vertex 289.9360343988869 311.5803002271649 0.0
    vertex 292.9360343988868 399.5803002271649 0.0
    vertex 292.9360343988868 311.5803002271649 0.0
  endloop
endfacet
facet normal 0.0 0.0 -1.0
  outer loop
    vertex 423.9360343988867 413.58030022716497 0.0
    vertex 303.9360343988869 410.5803002271649 0.0
    vertex 303.9360343988869 413.58030022716497 0.0
  endloop
endfacet
facet normal 0.0 0.0 -1.0
  outer loop
    vertex 303.9360343988869 410.5803002271649 0.0
    vertex 423.9360343988867 413.58030022716497 0.0
    vertex 420.93603439888665 410.5803002271649 0.0
  endloop
endfacet
facet normal 0.0 0.0 -1.0
  outer loop
    vertex 420.93603439888665 410.5803002271649 0.0
    vertex 423.9360343988867 413.58030022716497 0.0
    vertex 420.93603439888665 311.5803002271649 0.0
  endloop
endfacet
facet normal 0.0 0.0 -1.0
  outer loop
    vertex 420.93603439888665 311.5803002271649 0.0
    vertex 423.9360343988867 413.58030022716497 0.0
    vertex 423.9360343988867 311.5803002271649 0.0
  endloop
endfacet
endsolid Untitled-5bb683dc
