solid Untitled-5bb68380
facet normal 0.0 0.0 1.0
  outer loop
    vertex 204.3972601516719 221.34732675447117 93.00000000000001
    vertex 217.3972601516719 221.34732675447117 93.00000000000001
    vertex 207.3972601516719 224.34732675447117 93.00000000000001
  endloop
endfacet
facet normal 0.0 0.0 1.0
  outer loop
    vertex 217.3972601516719 224.34732675447117 93.00000000000001
    vertex 207.3972601516719 224.34732675447117 93.00000000000001
    vertex 217.3972601516719 221.34732675447117 93.00000000000001
  endloop
endfacet
facet normal 0.0 0.0 1.0
  outer loop
    vertex 204.3972601516719 235.3473267544712 93.00000000000001
    vertex 204.3972601516719 221.34732675447117 93.00000000000001
    vertex 207.39726015167193 235.3473267544712 93.00000000000001
  endloop
endfacet
facet normal 0.0 0.0 1.0
  outer loop
    vertex 207.3972601516719 224.34732675447117 93.00000000000001
    vertex 207.39726015167193 235.3473267544712 93.00000000000001
    vertex 204.3972601516719 221.34732675447117 93.00000000000001
  endloop
endfacet
facet normal -1.0 0.0 0.0
  outer loop
    vertex 217.3972601516719 224.34732675447117 123.0
    vertex 217.3972601516719 224.34732675447117 93.00000000000001
    vertex 217.3972601516719 221.34732675447117 123.0
  endloop
endfacet
facet normal -1.0 0.0 0.0
  outer loop
    vertex 217.3972601516719 221.34732675447117 93.00000000000001
    vertex 217.3972601516719 221.34732675447117 123.0
    vertex 217.3972601516719 224.34732675447117 93.00000000000001
  endloop
endfacet
facet normal 0.8660254037844388 0.4999999999999996 0.0
  outer loop
    vertex 239.44662806982063 326.42430405812297 0.0
    vertex 239.44662806982063 326.42430405812297 3.0
    vertex 239.49107093680544 326.3473267544712 0.0
  endloop
endfacet
facet normal 0.8660254037844388 0.4999999999999996 0.0
  outer loop
    vertex 239.49107093680544 326.3473267544712 3.0
    vertex 239.49107093680544 326.3473267544712 0.0
    vertex 239.44662806982063 326.42430405812297 3.0
  endloop
endfacet
facet normal -0.8660254037844397 0.49999999999999856 4.145089621337753e-17
  outer loop
    vertex 236.24915639722576 326.42430405812297 3.0
    vertex 236.24915639722576 326.42430405812297 0.0
    vertex 236.2047135302409 326.3473267544712 3.0
  endloop
endfacet
facet normal -0.8660254037844397 0.49999999999999856 4.145089621337753e-17
  outer loop
    vertex 236.2047135302409 326.3473267544712 0.0
    vertex 236.2047135302409 326.3473267544712 3.0
    vertex 236.24915639722576 326.42430405812297 0.0
  endloop
endfacet
facet normal 0.0 -1.0 0.0
  outer loop
    vertex 232.6501775009881 320.1906897544712 0.0
    vertex 243.04560696605824 320.1906897544712 0.0
    vertex 232.6501775009881 320.1906897544712 3.0
  endloop
endfacet
facet normal 0.0 -1.0 0.0
  outer loop
    vertex 243.04560696605824 320.1906897544712 3.0
    vertex 232.6501775009881 320.1906897544712 3.0
    vertex 243.04560696605824 320.1906897544712 0.0
  endloop
endfacet
facet normal -0.8660254037844397 0.4999999999999984 0.0
  outer loop
    vertex 236.2047135302409 326.3473267544712 3.0
    vertex 236.2047135302409 326.3473267544712 0.0
    vertex 232.6501775009881 320.1906897544712 3.0
  endloop
endfacet
facet normal -0.8660254037844397 0.4999999999999984 0.0
  outer loop
    vertex 232.6501775009881 320.1906897544712 0.0
    vertex 232.6501775009881 320.1906897544712 3.0
    vertex 236.2047135302409 326.3473267544712 0.0
  endloop
endfacet
facet normal 0.866025403784439 0.4999999999999995 0.0
  outer loop
    vertex 239.49107093680544 326.3473267544712 0.0
    vertex 239.49107093680544 326.3473267544712 3.0
    vertex 243.04560696605824 320.1906897544712 0.0
  endloop
endfacet
facet normal 0.866025403784439 0.4999999999999995 0.0
  outer loop
    vertex 243.04560696605824 320.1906897544712 3.0
    vertex 243.04560696605824 320.1906897544712 0.0
    vertex 239.49107093680544 326.3473267544712 3.0
  endloop
endfacet
facet normal 0.8660254037844383 0.500000000000001 0.0
  outer loop
    vertex 309.4959959879693 326.3473267544712 0.0
    vertex 309.4959959879693 326.3473267544712 3.0
    vertex 313.094974884207 320.11371245081943 0.0
  endloop
endfacet
facet normal 0.8660254037844383 0.500000000000001 0.0
  outer loop
    vertex 313.094974884207 320.11371245081943 3.0
    vertex 313.094974884207 320.11371245081943 0.0
    vertex 309.4959959879693 326.3473267544712 3.0
  endloop
endfacet
facet normal 0.8660254037844395 -0.49999999999999867 0.0
  outer loop
    vertex 306.2985243153745 326.3473267544712 0.0
    vertex 306.2985243153745 326.3473267544712 3.0
    vertex 302.6995454191368 320.11371245081943 0.0
  endloop
endfacet
facet normal 0.8660254037844395 -0.49999999999999867 0.0
  outer loop
    vertex 302.6995454191368 320.11371245081943 3.0
    vertex 302.6995454191368 320.11371245081943 0.0
    vertex 306.2985243153745 326.3473267544712 3.0
  endloop
endfacet
facet normal 1.0 2.1606067203026558e-17 -1.5744903004006578e-16
  outer loop
    vertex 207.3972601516719 326.3473267544712 3.0
    vertex 207.39726015167193 326.34732675447117 123.0
    vertex 207.3972601516719 224.34732675447117 3.0
  endloop
endfacet
facet normal 1.0 2.1606067203026558e-17 -1.5744903004006578e-16
  outer loop
    vertex 207.39726015167193 235.3473267544712 93.00000000000001
    vertex 207.3972601516719 224.34732675447117 3.0
    vertex 207.39726015167193 326.34732675447117 123.0
  endloop
endfacet
facet normal 1.0 2.1606067203026558e-17 -1.5744903004006578e-16
  outer loop
    vertex 207.3972601516719 224.34732675447117 93.00000000000001
    vertex 207.3972601516719 224.34732675447117 3.0
    vertex 207.39726015167193 235.3473267544712 93.00000000000001
  endloop
endfacet
facet normal 1.0 2.1606067203026558e-17 -1.5744903004006578e-16
  outer loop
    vertex 207.39726015167193 235.3473267544712 93.00000000000001
    vertex 207.39726015167193 326.34732675447117 123.0
    vertex 207.39726015167193 235.3473267544712 123.0
  endloop
endfacet
facet normal 0.0 -1.0 0.0
  outer loop
    vertex 342.1472601516719 320.0882697544712 0.0
    vertex 343.6472601516719 320.0882697544712 0.0
    vertex 342.1472601516719 320.0882697544712 123.0
  endloop
endfacet
facet normal 0.0 -1.0 0.0
  outer loop
    vertex 343.6472601516719 320.0882697544712 123.0
    vertex 342.1472601516719 320.0882697544712 123.0
    vertex 343.6472601516719 320.0882697544712 0.0
  endloop
endfacet
facet normal -1.0 0.0 0.0
  outer loop
    vertex 341.39726015167184 245.65547490603657 30.297968975934445
    vertex 341.39726015167184 256.6419671453188 37.46485468514941
    vertex 341.39726015167184 272.65547490603655 30.297968975934445
  endloop
endfacet
facet normal -1.0 0.0 0.0
  outer loop
    vertex 341.39726015167184 256.6419671453188 61.46485468514941
    vertex 341.39726015167184 272.65547490603655 30.297968975934445
    vertex 341.39726015167184 256.6419671453188 37.46485468514941
  endloop
endfacet
facet normal -1.0 0.0 0.0
  outer loop
    vertex 341.39726015167184 245.64196714531874 37.46485468514941
    vertex 341.39726015167184 256.6419671453188 37.46485468514941
    vertex 341.39726015167184 245.65547490603657 30.297968975934445
  endloop
endfacet
facet normal -1.0 0.0 0.0
  outer loop
    vertex 341.39726015167184 245.65547490603657 11.297968975934454
    vertex 341.39726015167184 245.64196714531874 37.46485468514941
    vertex 341.39726015167184 245.65547490603657 30.297968975934445
  endloop
endfacet
facet normal -1.0 0.0 0.0
  outer loop
    vertex 341.39726015167184 326.3473267544712 123.0
    vertex 341.39726015167184 326.3473267544712 3.0
    vertex 341.39726015167184 224.34732675447117 123.0
  endloop
endfacet
facet normal -1.0 0.0 0.0
  outer loop
    vertex 341.39726015167184 256.6419671453188 61.46485468514941
    vertex 341.39726015167184 224.34732675447117 123.0
    vertex 341.39726015167184 326.3473267544712 3.0
  endloop
endfacet
facet normal -1.0 0.0 0.0
  outer loop
    vertex 341.39726015167184 272.65547490603655 30.297968975934445
    vertex 341.39726015167184 256.6419671453188 61.46485468514941
    vertex 341.39726015167184 326.3473267544712 3.0
  endloop
endfacet
facet normal -1.0 0.0 0.0
  outer loop
    vertex 341.39726015167184 245.64196714531874 61.46485468514941
    vertex 341.39726015167184 224.34732675447117 123.0
    vertex 341.39726015167184 256.6419671453188 61.46485468514941
  endloop
endfacet
facet normal -1.0 0.0 0.0
  outer loop
    vertex 341.39726015167184 245.64196714531874 37.46485468514941
    vertex 341.39726015167184 224.34732675447117 123.0
    vertex 341.39726015167184 245.64196714531874 61.46485468514941
  endloop
endfacet
facet normal -1.0 0.0 0.0
  outer loop
    vertex 341.39726015167184 224.34732675447117 3.0
    vertex 341.39726015167184 272.65547490603655 11.297968975934454
    vertex 341.39726015167184 326.3473267544712 3.0
  endloop
endfacet
facet normal -1.0 0.0 0.0
  outer loop
    vertex 341.39726015167184 272.65547490603655 30.297968975934445
    vertex 341.39726015167184 326.3473267544712 3.0
    vertex 341.39726015167184 272.65547490603655 11.297968975934454
  endloop
endfacet
facet normal -1.0 0.0 0.0
  outer loop
    vertex 341.39726015167184 245.65547490603657 11.297968975934454
    vertex 341.39726015167184 272.65547490603655 11.297968975934454
    vertex 341.39726015167184 224.34732675447117 3.0
  endloop
endfacet
facet normal -1.0 0.0 0.0
  outer loop
    vertex 341.39726015167184 245.64196714531874 37.46485468514941
    vertex 341.39726015167184 245.65547490603657 11.297968975934454
    vertex 341.39726015167184 224.34732675447117 3.0
  endloop
endfacet
facet normal -1.0 0.0 0.0
  outer loop
    vertex 341.39726015167184 224.34732675447117 123.0
    vertex 341.39726015167184 245.64196714531874 37.46485468514941
    vertex 341.39726015167184 224.34732675447117 3.0
  endloop
endfacet
facet normal 0.0 -1.0 0.0
  outer loop
    vertex 302.6995454191368 320.11371245081943 0.0
    vertex 313.094974884207 320.11371245081943 0.0
    vertex 302.6995454191368 320.11371245081943 3.0
  endloop
endfacet
facet normal 0.0 -1.0 0.0
  outer loop
    vertex 313.094974884207 320.11371245081943 3.0
    vertex 302.6995454191368 320.11371245081943 3.0
    vertex 313.094974884207 320.11371245081943 0.0
  endloop
endfacet
facet normal 0.0 1.0 0.0
  outer loop
    vertex 207.3972601516719 224.34732675447117 3.0
    vertex 332.6394219167616 224.34732675447117 97.92646288923446
    vertex 341.39726015167184 224.34732675447117 3.0
  endloop
endfacet
facet normal 0.0 1.0 0.0
  outer loop
    vertex 341.39726015167184 224.34732675447117 123.0
    vertex 341.39726015167184 224.34732675447117 3.0
    vertex 332.6394219167616 224.34732675447117 97.92646288923446
  endloop
endfacet
facet normal 0.0 1.0 0.0
  outer loop
    vertex 217.3972601516719 224.34732675447117 93.00000000000001
    vertex 332.6394219167616 224.34732675447117 97.92646288923446
    vertex 207.3972601516719 224.34732675447117 3.0
  endloop
endfacet
facet normal 0.0 1.0 0.0
  outer loop
    vertex 332.6394219167616 224.34732675447117 109.92646288923446
    vertex 341.39726015167184 224.34732675447117 123.0
    vertex 332.6394219167616 224.34732675447117 97.92646288923446
  endloop
endfacet
facet normal 0.0 1.0 0.0
  outer loop
    vertex 313.6394219167616 224.34732675447117 109.92646288923446
    vertex 341.39726015167184 224.34732675447117 123.0
    vertex 332.6394219167616 224.34732675447117 109.92646288923446
  endloop
endfacet
facet normal 0.0 1.0 0.0
  outer loop
    vertex 217.3972601516719 224.34732675447117 123.0
    vertex 313.6394219167616 224.34732675447117 97.92646288923446
    vertex 217.3972601516719 224.34732675447117 93.00000000000001
  endloop
endfacet
facet normal 0.0 1.0 0.0
  outer loop
    vertex 332.6394219167616 224.34732675447117 97.92646288923446
    vertex 217.3972601516719 224.34732675447117 93.00000000000001
    vertex 313.6394219167616 224.34732675447117 97.92646288923446
  endloop
endfacet
facet normal 0.0 1.0 0.0
  outer loop
    vertex 313.6394219167616 224.34732675447117 109.92646288923446
    vertex 313.6394219167616 224.34732675447117 97.92646288923446
    vertex 217.3972601516719 224.34732675447117 123.0
  endloop
endfacet
facet normal 0.0 1.0 0.0
  outer loop
    vertex 341.39726015167184 224.34732675447117 123.0
    vertex 313.6394219167616 224.34732675447117 109.92646288923446
    vertex 217.3972601516719 224.34732675447117 123.0
  endloop
endfacet
facet normal 0.0 1.0 0.0
  outer loop
    vertex 217.3972601516719 224.34732675447117 93.00000000000001
    vertex 207.3972601516719 224.34732675447117 3.0
    vertex 207.3972601516719 224.34732675447117 93.00000000000001
  endloop
endfacet
facet normal 0.0 0.0 1.0
  outer loop
    vertex 207.3972601516719 224.34732675447117 3.0
    vertex 232.6501775009881 320.1906897544712 3.0
    vertex 207.3972601516719 326.3473267544712 3.0
  endloop
endfacet
facet normal 0.0 0.0 1.0
  outer loop
    vertex 236.2047135302409 326.3473267544712 3.0
    vertex 207.3972601516719 326.3473267544712 3.0
    vertex 232.6501775009881 320.1906897544712 3.0
  endloop
endfacet
facet normal 0.0 0.0 1.0
  outer loop
    vertex 239.49107093680544 326.3473267544712 3.0
    vertex 243.04560696605824 320.1906897544712 3.0
    vertex 306.2985243153745 326.3473267544712 3.0
  endloop
endfacet
facet normal 0.0 0.0 1.0
  outer loop
    vertex 302.6995454191368 320.11371245081943 3.0
    vertex 306.2985243153745 326.3473267544712 3.0
    vertex 243.04560696605824 320.1906897544712 3.0
  endloop
endfacet
facet normal 0.0 0.0 1.0
  outer loop
    vertex 309.4959959879693 326.3473267544712 3.0
    vertex 313.094974884207 320.11371245081943 3.0
    vertex 341.39726015167184 326.3473267544712 3.0
  endloop
endfacet
facet normal 0.0 0.0 1.0
  outer loop
    vertex 207.3972601516719 224.34732675447117 3.0
    vertex 341.39726015167184 224.34732675447117 3.0
    vertex 232.6501775009881 320.1906897544712 3.0
  endloop
endfacet
facet normal 0.0 0.0 1.0
  outer loop
    vertex 243.04560696605824 320.1906897544712 3.0
    vertex 232.6501775009881 320.1906897544712 3.0
    vertex 341.39726015167184 224.34732675447117 3.0
  endloop
endfacet
facet normal 0.0 0.0 1.0
  outer loop
    vertex 302.6995454191368 320.11371245081943 3.0
    vertex 243.04560696605824 320.1906897544712 3.0
    vertex 341.39726015167184 224.34732675447117 3.0
  endloop
endfacet
facet normal 0.0 0.0 1.0
  outer loop
    vertex 313.094974884207 320.11371245081943 3.0
    vertex 302.6995454191368 320.11371245081943 3.0
    vertex 341.39726015167184 224.34732675447117 3.0
  endloop
endfacet
facet normal 0.0 0.0 1.0
  outer loop
    vertex 341.39726015167184 326.3473267544712 3.0
    vertex 313.094974884207 320.11371245081943 3.0
    vertex 341.39726015167184 224.34732675447117 3.0
  endloop
endfacet
facet normal 0.0 -1.0 0.0
  outer loop
    vertex 217.3972601516719 221.34732675447117 93.00000000000001
    vertex 313.6394219167616 221.34732675447117 97.92646288923446
    vertex 217.3972601516719 221.34732675447117 123.0
  endloop
endfacet
facet normal 0.0 -1.0 0.0
  outer loop
    vertex 313.6394219167616 221.34732675447117 109.92646288923446
    vertex 217.3972601516719 221.34732675447117 123.0
    vertex 313.6394219167616 221.34732675447117 97.92646288923446
  endloop
endfacet
facet normal 0.0 -1.0 0.0
  outer loop
    vertex 332.6394219167616 221.34732675447117 109.92646288923446
    vertex 217.3972601516719 221.34732675447117 123.0
    vertex 313.6394219167616 221.34732675447117 109.92646288923446
  endloop
endfacet
facet normal 0.0 -1.0 0.0
  outer loop
    vertex 204.3972601516719 221.34732675447117 0.0
    vertex 344.3972601516719 221.34732675447117 0.0
    vertex 204.3972601516719 221.34732675447117 93.00000000000001
  endloop
endfacet
facet normal 0.0 -1.0 0.0
  outer loop
    vertex 217.3972601516719 221.34732675447117 93.00000000000001
    vertex 204.3972601516719 221.34732675447117 93.00000000000001
    vertex 344.3972601516719 221.34732675447117 0.0
  endloop
endfacet
facet normal 0.0 -1.0 0.0
  outer loop
    vertex 332.6394219167616 221.34732675447117 97.92646288923446
    vertex 217.3972601516719 221.34732675447117 93.00000000000001
    vertex 344.3972601516719 221.34732675447117 0.0
  endloop
endfacet
facet normal 0.0 -1.0 0.0
  outer loop
    vertex 344.3972601516719 221.34732675447117 123.0
    vertex 332.6394219167616 221.34732675447117 97.92646288923446
    vertex 344.3972601516719 221.34732675447117 0.0
  endloop
endfacet
facet normal 0.0 -1.0 0.0
  outer loop
    vertex 313.6394219167616 221.34732675447117 97.92646288923446
    vertex 217.3972601516719 221.34732675447117 93.00000000000001
    vertex 332.6394219167616 221.34732675447117 97.92646288923446
  endloop
endfacet
facet normal 0.0 -1.0 0.0
  outer loop
    vertex 332.6394219167616 221.34732675447117 109.92646288923446
    vertex 332.6394219167616 221.34732675447117 97.92646288923446
    vertex 344.3972601516719 221.34732675447117 123.0
  endloop
endfacet
facet normal 0.0 -1.0 0.0
  outer loop
    vertex 217.3972601516719 221.34732675447117 123.0
    vertex 332.6394219167616 221.34732675447117 109.92646288923446
    vertex 344.3972601516719 221.34732675447117 123.0
  endloop
endfacet
facet normal 0.0 1.0 0.0
  outer loop
    vertex 306.2985243153745 326.3473267544712 0.0
    vertex 239.49107093680544 326.3473267544712 0.0
    vertex 306.2985243153745 326.3473267544712 3.0
  endloop
endfacet
facet normal 0.0 1.0 0.0
  outer loop
    vertex 239.49107093680544 326.3473267544712 3.0
    vertex 306.2985243153745 326.3473267544712 3.0
    vertex 239.49107093680544 326.3473267544712 0.0
  endloop
endfacet
facet normal 0.0 1.0 0.0
  outer loop
    vertex 341.39726015167184 326.3473267544712 3.0
    vertex 309.4959959879693 326.3473267544712 0.0
    vertex 309.4959959879693 326.3473267544712 3.0
  endloop
endfacet
facet normal 0.0 1.0 0.0
  outer loop
    vertex 309.4959959879693 326.3473267544712 0.0
    vertex 341.39726015167184 326.3473267544712 3.0
    vertex 342.5222601516719 326.3473267544712 0.0
  endloop
endfacet
facet normal 0.0 1.0 0.0
  outer loop
    vertex 342.5222601516719 326.3473267544712 123.0
    vertex 342.5222601516719 326.3473267544712 0.0
    vertex 341.39726015167184 326.3473267544712 3.0
  endloop
endfacet
facet normal 0.0 1.0 0.0
  outer loop
    vertex 341.39726015167184 326.3473267544712 123.0
    vertex 342.5222601516719 326.3473267544712 123.0
    vertex 341.39726015167184 326.3473267544712 3.0
  endloop
endfacet
facet normal 0.0 0.0 1.0
  outer loop
    vertex 341.39726015167184 224.34732675447117 123.0
    vertex 342.1472601516719 320.0882697544712 123.0
    vertex 341.39726015167184 326.3473267544712 123.0
  endloop
endfacet
facet normal 0.0 0.0 1.0
  outer loop
    vertex 342.5222601516719 326.3473267544712 123.0
    vertex 341.39726015167184 326.3473267544712 123.0
    vertex 342.1472601516719 320.0882697544712 123.0
  endloop
endfacet
facet normal 0.0 0.0 1.0
  outer loop
    vertex 342.5222601516719 326.3182697544712 123.0
    vertex 342.5222601516719 326.3473267544712 123.0
    vertex 342.1472601516719 320.0882697544712 123.0
  endloop
endfacet
facet normal 0.0 0.0 1.0
  outer loop
    vertex 343.2722601516719 326.3473267544712 123.0
    vertex 343.2722601516719 326.3182697544712 123.0
    vertex 344.3972601516719 326.3473267544712 123.0
  endloop
endfacet
facet normal 0.0 0.0 1.0
  outer loop
    vertex 343.6472601516719 320.0882697544712 123.0
    vertex 344.3972601516719 326.3473267544712 123.0
    vertex 343.2722601516719 326.3182697544712 123.0
  endloop
endfacet
facet normal 0.0 0.0 1.0
  outer loop
    vertex 217.3972601516719 224.34732675447117 123.0
    vertex 217.3972601516719 221.34732675447117 123.0
    vertex 341.39726015167184 224.34732675447117 123.0
  endloop
endfacet
facet normal 0.0 0.0 1.0
  outer loop
    vertex 344.3972601516719 221.34732675447117 123.0
    vertex 341.39726015167184 224.34732675447117 123.0
    vertex 217.3972601516719 221.34732675447117 123.0
  endloop
endfacet
facet normal 0.0 0.0 1.0
  outer loop
    vertex 342.1472601516719 320.0882697544712 123.0
    vertex 341.39726015167184 224.34732675447117 123.0
    vertex 344.3972601516719 221.34732675447117 123.0
  endloop
endfacet
facet normal 0.0 0.0 1.0
  outer loop
    vertex 343.6472601516719 320.0882697544712 123.0
    vertex 342.1472601516719 320.0882697544712 123.0
    vertex 344.3972601516719 221.34732675447117 123.0
  endloop
endfacet
facet normal 0.0 0.0 1.0
  outer loop
    vertex 344.3972601516719 326.3473267544712 123.0
    vertex 343.6472601516719 320.0882697544712 123.0
    vertex 344.3972601516719 221.34732675447117 123.0
  endloop
endfacet
facet normal 0.0 0.0 -1.0
  outer loop
    vertex 204.3972601516719 221.34732675447117 0.0
    vertex 204.3972601516719 326.3473267544712 0.0
    vertex 344.3972601516719 221.34732675447117 0.0
  endloop
endfacet
facet normal 0.0 0.0 -1.0
  outer loop
    vertex 232.6501775009881 320.1906897544712 0.0
    vertex 344.3972601516719 221.34732675447117 0.0
    vertex 204.3972601516719 326.3473267544712 0.0
  endloop
endfacet
facet normal 0.0 0.0 -1.0
  outer loop
    vertex 243.04560696605824 320.1906897544712 0.0
    vertex 344.3972601516719 221.34732675447117 0.0
    vertex 232.6501775009881 320.1906897544712 0.0
  endloop
endfacet
facet normal 0.0 0.0 -1.0
  outer loop
    vertex 302.6995454191368 320.11371245081943 0.0
    vertex 344.3972601516719 221.34732675447117 0.0
    vertex 243.04560696605824 320.1906897544712 0.0
  endloop
endfacet
facet normal 0.0 0.0 -1.0
  outer loop
    vertex 313.094974884207 320.11371245081943 0.0
    vertex 344.3972601516719 221.34732675447117 0.0
    vertex 302.6995454191368 320.11371245081943 0.0
  endloop
endfacet
facet normal 0.0 0.0 -1.0
  outer loop
    vertex 342.1472601516719 320.0882697544712 0.0
    vertex 344.3972601516719 221.34732675447117 0.0
    vertex 313.094974884207 320.11371245081943 0.0
  endloop
endfacet
facet normal 0.0 0.0 -1.0
  outer loop
    vertex 343.6472601516719 320.0882697544712 0.0
    vertex 344.3972601516719 221.34732675447117 0.0
    vertex 342.1472601516719 320.0882697544712 0.0
  endloop
endfacet
facet normal 0.0 0.0 -1.0
  outer loop
    vertex 343.2722601516719 326.3182697544712 0.0
    vertex 343.2722601516719 326.3473267544712 0.0
    vertex 343.6472601516719 320.0882697544712 0.0
  endloop
endfacet
facet normal 0.0 0.0 -1.0
  outer loop
    vertex 344.3972601516719 326.3473267544712 0.0
    vertex 343.6472601516719 320.0882697544712 0.0
    vertex 343.2722601516719 326.3473267544712 0.0
  endloop
endfacet
facet normal 0.0 0.0 -1.0
  outer loop
    vertex 344.3972601516719 221.34732675447117 0.0
    vertex 343.6472601516719 320.0882697544712 0.0
    vertex 344.3972601516719 326.3473267544712 0.0
  endloop
endfacet
facet normal 0.0 0.0 -1.0
  outer loop
    vertex 309.4959959879693 326.3473267544712 0.0
    vertex 342.5222601516719 326.3473267544712 0.0
    vertex 313.094974884207 320.11371245081943 0.0
  endloop
endfacet
facet normal 0.0 0.0 -1.0
  outer loop
    vertex 342.1472601516719 320.0882697544712 0.0
    vertex 313.094974884207 320.11371245081943 0.0
    vertex 342.5222601516719 326.3473267544712 0.0
  endloop
endfacet
facet normal 0.0 0.0 -1.0
  outer loop
    vertex 342.5222601516719 326.3182697544712 0.0
    vertex 342.1472601516719 320.0882697544712 0.0
    vertex 342.5222601516719 326.3473267544712 0.0
  endloop
endfacet
facet normal 0.0 0.0 -1.0
  outer loop
    vertex 239.49107093680544 326.3473267544712 0.0
    vertex 306.2985243153745 326.3473267544712 0.0
    vertex 243.04560696605824 320.1906897544712 0.0
  endloop
endfacet
facet normal 0.0 0.0 -1.0
  outer loop
    vertex 302.6995454191368 320.11371245081943 0.0
    vertex 243.04560696605824 320.1906897544712 0.0
    vertex 306.2985243153745 326.3473267544712 0.0
  endloop
endfacet
facet normal 0.0 0.0 -1.0
  outer loop
    vertex 232.6501775009881 320.1906897544712 0.0
    vertex 204.3972601516719 326.3473267544712 0.0
    vertex 236.2047135302409 326.3473267544712 0.0
  endloop
endfacet
facet normal 1.0 0.0 0.0
  outer loop
    vertex 344.3972601516719 326.3473267544712 123.0
    vertex 344.3972601516719 272.65547490603655 11.297968975934454
    vertex 344.3972601516719 326.3473267544712 0.0
  endloop
endfacet
facet normal 1.0 0.0 0.0
  outer loop
    vertex 344.3972601516719 221.34732675447117 0.0
    vertex 344.3972601516719 326.3473267544712 0.0
    vertex 344.3972601516719 272.65547490603655 11.297968975934454
  endloop
endfacet
facet normal 1.0 0.0 0.0
  outer loop
    vertex 344.3972601516719 245.65547490603657 11.297968975934454
    vertex 344.3972601516719 221.34732675447117 0.0
    vertex 344.3972601516719 272.65547490603655 11.297968975934454
  endloop
endfacet
facet normal 1.0 0.0 0.0
  outer loop
    vertex 344.3972601516719 245.65547490603657 30.297968975934445
    vertex 344.3972601516719 221.34732675447117 0.0
    vertex 344.3972601516719 245.65547490603657 11.297968975934454
  endloop
endfacet
facet normal 1.0 0.0 0.0
  outer loop
    vertex 344.3972601516719 245.64196714531874 37.46485468514941
    vertex 344.3972601516719 221.34732675447117 0.0
    vertex 344.3972601516719 245.65547490603657 30.297968975934445
  endloop
endfacet
facet normal 1.0 0.0 0.0
  outer loop
    vertex 344.3972601516719 245.64196714531874 61.46485468514941
    vertex 344.3972601516719 221.34732675447117 0.0
    vertex 344.3972601516719 245.64196714531874 37.46485468514941
  endloop
endfacet
facet normal 1.0 0.0 0.0
  outer loop
    vertex 344.3972601516719 221.34732675447117 123.0
    vertex 344.3972601516719 256.6419671453188 61.46485468514941
    vertex 344.3972601516719 326.3473267544712 123.0
  endloop
endfacet
facet normal 1.0 0.0 0.0
  outer loop
    vertex 344.3972601516719 272.65547490603655 30.297968975934445
    vertex 344.3972601516719 326.3473267544712 123.0
    vertex 344.3972601516719 256.6419671453188 61.46485468514941
  endloop
endfacet
facet normal 1.0 0.0 0.0
  outer loop
    vertex 344.3972601516719 272.65547490603655 11.297968975934454
    vertex 344.3972601516719 326.3473267544712 123.0
    vertex 344.3972601516719 272.65547490603655 30.297968975934445
  endloop
endfacet
facet normal 1.0 0.0 0.0
  outer loop
    vertex 344.3972601516719 256.6419671453188 37.46485468514941
    vertex 344.3972601516719 272.65547490603655 30.297968975934445
    vertex 344.3972601516719 256.6419671453188 61.46485468514941
  endloop
endfacet
facet normal 1.0 0.0 0.0
  outer loop
    vertex 344.3972601516719 245.64196714531874 61.46485468514941
    vertex 344.3972601516719 256.6419671453188 61.46485468514941
    vertex 344.3972601516719 221.34732675447117 123.0
  endloop
endfacet
facet normal 1.0 0.0 0.0
  outer loop
    vertex 344.3972601516719 221.34732675447117 0.0
    vertex 344.3972601516719 245.64196714531874 61.46485468514941
    vertex 344.3972601516719 221.34732675447117 123.0
  endloop
endfacet
facet normal 1.0 0.0 0.0
  outer loop
    vertex 344.3972601516719 272.65547490603655 30.297968975934445
    vertex 344.3972601516719 256.6419671453188 37.46485468514941
    vertex 344.3972601516719 245.65547490603657 30.297968975934445
  endloop
endfacet
facet normal 1.0 0.0 0.0
  outer loop
    vertex 344.3972601516719 245.64196714531874 37.46485468514941
    vertex 344.3972601516719 245.65547490603657 30.297968975934445
    vertex 344.3972601516719 256.6419671453188 37.46485468514941
  endloop
endfacet
facet normal 0.0 1.0 0.0
  outer loop
    vertex 344.3972601516719 326.3473267544712 0.0
    vertex 343.2722601516719 326.3473267544712 0.0
    vertex 344.3972601516719 326.3473267544712 123.0
  endloop
endfacet
facet normal 0.0 1.0 0.0
  outer loop
    vertex 343.2722601516719 326.3473267544712 123.0
    vertex 344.3972601516719 326.3473267544712 123.0
    vertex 343.2722601516719 326.3473267544712 0.0
  endloop
endfacet
facet normal 0.9981933323598585 0.060083868320217095 0.0
  outer loop
    vertex 343.2722601516719 326.3182697544712 0.0
    vertex 343.2722601516719 326.3182697544712 123.0
    vertex 343.6472601516719 320.0882697544712 0.0
  endloop
endfacet
facet normal 0.9981933323598585 0.060083868320217095 0.0
  outer loop
    vertex 343.6472601516719 320.0882697544712 123.0
    vertex 343.6472601516719 320.0882697544712 0.0
    vertex 343.2722601516719 326.3182697544712 123.0
  endloop
endfacet
facet normal 0.9981933323598585 -0.060083868320217095 0.0
  outer loop
    vertex 342.5222601516719 326.3182697544712 0.0
    vertex 342.5222601516719 326.3182697544712 123.0
    vertex 342.1472601516719 320.0882697544712 0.0
  endloop
endfacet
facet normal 0.9981933323598585 -0.060083868320217095 0.0
  outer loop
    vertex 342.1472601516719 320.0882697544712 123.0
    vertex 342.1472601516719 320.0882697544712 0.0
    vertex 342.5222601516719 326.3182697544712 123.0
  endloop
endfacet
facet normal 1.0 0.0 0.0
  outer loop
    vertex 342.5222601516719 326.3473267544712 0.0
    vertex 342.5222601516719 326.3473267544712 123.0
    vertex 342.5222601516719 326.3182697544712 0.0
  endloop
endfacet
facet normal 1.0 0.0 0.0
  outer loop
    vertex 342.5222601516719 326.3182697544712 123.0
    vertex 342.5222601516719 326.3182697544712 0.0
    vertex 342.5222601516719 326.3473267544712 123.0
  endloop
endfacet
facet normal 0.0 0.0 -1.0
  outer loop
    vertex 313.6394219167616 221.34732675447117 109.92646288923446
    vertex 313.6394219167616 224.34732675447117 109.92646288923446
    vertex 332.6394219167616 221.34732675447117 109.92646288923446
  endloop
endfacet
facet normal 0.0 0.0 -1.0
  outer loop
    vertex 332.6394219167616 224.34732675447117 109.92646288923446
    vertex 332.6394219167616 221.34732675447117 109.92646288923446
    vertex 313.6394219167616 224.34732675447117 109.92646288923446
  endloop
endfacet
facet normal -1.0 0.0 0.0
  outer loop
    vertex 332.6394219167616 224.34732675447117 109.92646288923446
    vertex 332.6394219167616 224.34732675447117 97.92646288923446
    vertex 332.6394219167616 221.34732675447117 109.92646288923446
  endloop
endfacet
facet normal -1.0 0.0 0.0
  outer loop
    vertex 332.6394219167616 221.34732675447117 97.92646288923446
    vertex 332.6394219167616 221.34732675447117 109.92646288923446
    vertex 332.6394219167616 224.34732675447117 97.92646288923446
  endloop
endfacet
facet normal 0.0 0.0 1.0
  outer loop
    vertex 313.6394219167616 224.34732675447117 97.92646288923446
    vertex 313.6394219167616 221.34732675447117 97.92646288923446
    vertex 332.6394219167616 224.34732675447117 97.92646288923446
  endloop
endfacet
facet normal 0.0 0.0 1.0
  outer loop
    vertex 332.6394219167616 221.34732675447117 97.92646288923446
    vertex 332.6394219167616 224.34732675447117 97.92646288923446
    vertex 313.6394219167616 221.34732675447117 97.92646288923446
  endloop
endfacet
facet normal 1.0 0.0 0.0
  outer loop
    vertex 313.6394219167616 224.34732675447117 97.92646288923446
    vertex 313.6394219167616 224.34732675447117 109.92646288923446
    vertex 313.6394219167616 221.34732675447117 97.92646288923446
  endloop
endfacet
facet normal 1.0 0.0 0.0
  outer loop
    vertex 313.6394219167616 221.34732675447117 109.92646288923446
    vertex 313.6394219167616 221.34732675447117 97.92646288923446
    vertex 313.6394219167616 224.34732675447117 109.92646288923446
  endloop
endfacet
facet normal 0.0 -1.0 0.0
  outer loop
    vertex 341.39726015167184 272.65547490603655 11.297968975934454
    vertex 344.3972601516719 272.65547490603655 11.297968975934454
    vertex 341.39726015167184 272.65547490603655 30.297968975934445
  endloop
endfacet
facet normal 0.0 -1.0 0.0
  outer loop
    vertex 344.3972601516719 272.65547490603655 30.297968975934445
    vertex 341.39726015167184 272.65547490603655 30.297968975934445
    vertex 344.3972601516719 272.65547490603655 11.297968975934454
  endloop
endfacet
facet normal 0.0 0.0 -1.0
  outer loop
    vertex 341.39726015167184 245.65547490603657 30.297968975934445
    vertex 341.39726015167184 272.65547490603655 30.297968975934445
    vertex 344.3972601516719 245.65547490603657 30.297968975934445
  endloop
endfacet
facet normal 0.0 0.0 -1.0
  outer loop
    vertex 344.3972601516719 272.65547490603655 30.297968975934445
    vertex 344.3972601516719 245.65547490603657 30.297968975934445
    vertex 341.39726015167184 272.65547490603655 30.297968975934445
  endloop
endfacet
facet normal 0.0 1.0 0.0
  outer loop
    vertex 344.3972601516719 245.65547490603657 11.297968975934454
    vertex 341.39726015167184 245.65547490603657 11.297968975934454
    vertex 344.3972601516719 245.65547490603657 30.297968975934445
  endloop
endfacet
facet normal 0.0 1.0 0.0
  outer loop
    vertex 341.39726015167184 245.65547490603657 30.297968975934445
    vertex 344.3972601516719 245.65547490603657 30.297968975934445
    vertex 341.39726015167184 245.65547490603657 11.297968975934454
  endloop
endfacet
facet normal 0.0 0.0 1.0
  outer loop
    vertex 341.39726015167184 272.65547490603655 11.297968975934454
    vertex 341.39726015167184 245.65547490603657 11.297968975934454
    vertex 344.3972601516719 272.65547490603655 11.297968975934454
  endloop
endfacet
facet normal 0.0 0.0 1.0
  outer loop
    vertex 344.3972601516719 245.65547490603657 11.297968975934454
    vertex 344.3972601516719 272.65547490603655 11.297968975934454
    vertex 341.39726015167184 245.65547490603657 11.297968975934454
  endloop
endfacet
facet normal 0.0 0.0 1.0
  outer loop
    vertex 341.39726015167184 256.6419671453188 37.46485468514941
    vertex 341.39726015167184 245.64196714531874 37.46485468514941
    vertex 344.3972601516719 256.6419671453188 37.46485468514941
  endloop
endfacet
facet normal 0.0 0.0 1.0
  outer loop
    vertex 344.3972601516719 245.64196714531874 37.46485468514941
    vertex 344.3972601516719 256.6419671453188 37.46485468514941
    vertex 341.39726015167184 245.64196714531874 37.46485468514941
  endloop
endfacet
facet normal 0.0 -1.0 0.0
  outer loop
    vertex 341.39726015167184 256.6419671453188 37.46485468514941
    vertex 344.3972601516719 256.6419671453188 37.46485468514941
    vertex 341.39726015167184 256.6419671453188 61.46485468514941
  endloop
endfacet
facet normal 0.0 -1.0 0.0
  outer loop
    vertex 344.3972601516719 256.6419671453188 61.46485468514941
    vertex 341.39726015167184 256.6419671453188 61.46485468514941
    vertex 344.3972601516719 256.6419671453188 37.46485468514941
  endloop
endfacet
facet normal 0.0 0.0 -1.0
  outer loop
    vertex 341.39726015167184 245.64196714531874 61.46485468514941
    vertex 341.39726015167184 256.6419671453188 61.46485468514941
    vertex 344.3972601516719 245.64196714531874 61.46485468514941
  endloop
endfacet
facet normal 0.0 0.0 -1.0
  outer loop
    vertex 344.3972601516719 256.6419671453188 61.46485468514941
    vertex 344.3972601516719 245.64196714531874 61.46485468514941
    vertex 341.39726015167184 256.6419671453188 61.46485468514941
  endloop
endfacet
facet normal 0.0 1.0 0.0
  outer loop
    vertex 344.3972601516719 245.64196714531874 37.46485468514941
    vertex 341.39726015167184 245.64196714531874 37.46485468514941
    vertex 344.3972601516719 245.64196714531874 61.46485468514941
  endloop
endfacet
facet normal 0.0 1.0 0.0
  outer loop
    vertex 341.39726015167184 245.64196714531874 61.46485468514941
    vertex 344.3972601516719 245.64196714531874 61.46485468514941
    vertex 341.39726015167184 245.64196714531874 37.46485468514941
  endloop
endfacet
facet normal -1.0 -8.508701177761974e-17 1.7683290423786388e-16
  outer loop
    vertex 204.3972601516719 326.3473267544712 0.0
    vertex 204.3972601516719 221.34732675447117 0.0
    vertex 204.3972601516719 326.34732675447117 123.0
  endloop
endfacet
facet normal -1.0 -8.508701177761974e-17 1.7683290423786388e-16
  outer loop
    vertex 204.3972601516719 235.3473267544712 93.00000000000001
    vertex 204.3972601516719 326.34732675447117 123.0
    vertex 204.3972601516719 221.34732675447117 0.0
  endloop
endfacet
facet normal -1.0 -8.508701177761974e-17 1.7683290423786388e-16
  outer loop
    vertex 204.3972601516719 235.3473267544712 123.0
    vertex 204.3972601516719 326.34732675447117 123.0
    vertex 204.3972601516719 235.3473267544712 93.00000000000001
  endloop
endfacet
facet normal -1.0 -8.508701177761974e-17 1.7683290423786388e-16
  outer loop
    vertex 204.3972601516719 221.34732675447117 93.00000000000001
    vertex 204.3972601516719 235.3473267544712 93.00000000000001
    vertex 204.3972601516719 221.34732675447117 0.0
  endloop
endfacet
facet normal 0.0 -1.0 0.0
  outer loop
    vertex 204.3972601516719 235.3473267544712 93.00000000000001
    vertex 207.39726015167193 235.3473267544712 93.00000000000001
    vertex 204.3972601516719 235.3473267544712 123.0
  endloop
endfacet
facet normal 0.0 -1.0 0.0
  outer loop
    vertex 207.39726015167193 235.3473267544712 123.0
    vertex 204.3972601516719 235.3473267544712 123.0
    vertex 207.39726015167193 235.3473267544712 93.00000000000001
  endloop
endfacet
facet normal 3.7599553100638635e-16 0.0 1.0
  outer loop
    vertex 204.3972601516719 326.34732675447117 123.0
    vertex 204.3972601516719 235.3473267544712 123.0
    vertex 207.39726015167193 326.34732675447117 123.0
  endloop
endfacet
facet normal 3.7599553100638635e-16 0.0 1.0
  outer loop
    vertex 207.39726015167193 235.3473267544712 123.0
    vertex 207.39726015167193 326.34732675447117 123.0
    vertex 204.3972601516719 235.3473267544712 123.0
  endloop
endfacet
facet normal 1.6579130293687303e-16 1.0 2.836879896858328e-16
  outer loop
    vertex 236.2047135302409 326.3473267544712 0.0
    vertex 204.3972601516719 326.3473267544712 0.0
    vertex 236.2047135302409 326.3473267544712 3.0
  endloop
endfacet
facet normal 1.6579130293687303e-16 1.0 2.836879896858328e-16
  outer loop
    vertex 207.3972601516719 326.3473267544712 3.0
    vertex 236.2047135302409 326.3473267544712 3.0
    vertex 204.3972601516719 326.3473267544712 0.0
  endloop
endfacet
facet normal 1.6579130293687303e-16 1.0 2.836879896858328e-16
  outer loop
    vertex 204.3972601516719 326.34732675447117 123.0
    vertex 207.3972601516719 326.3473267544712 3.0
    vertex 204.3972601516719 326.3473267544712 0.0
  endloop
endfacet
facet normal 1.6579130293687303e-16 1.0 2.836879896858328e-16
  outer loop
    vertex 207.39726015167193 326.34732675447117 123.0
    vertex 207.3972601516719 326.3473267544712 3.0
    vertex 204.3972601516719 326.34732675447117 123.0
  endloop
endfacet
endsolid Untitled-5bb68380
