solid Untitled-5bb68329
facet normal 0.0 0.0 1.0
  outer loop
    vertex 190.32796048633278 558.844314922988 5.999999999999966
    vertex 190.32796048633278 453.84431492298813 5.999999999999966
    vertex 330.3279604863326 558.844314922988 5.999999999999966
  endloop
endfacet
facet normal 0.0 0.0 1.0
  outer loop
    vertex 330.3279604863326 453.84431492298813 5.999999999999966
    vertex 330.3279604863326 558.844314922988 5.999999999999966
    vertex 190.32796048633278 453.84431492298813 5.999999999999966
  endloop
endfacet
facet normal 0.0 0.0 -1.0
  outer loop
    vertex 190.32796048633278 558.844314922988 2.999999999999972
    vertex 193.32796048633284 470.8443149229881 2.999999999999972
    vertex 190.32796048633278 453.84431492298813 2.999999999999972
  endloop
endfacet
facet normal 0.0 0.0 -1.0
  outer loop
    vertex 207.3279604863328 456.84431492298796 2.999999999999972
    vertex 190.32796048633278 453.84431492298813 2.999999999999972
    vertex 193.32796048633284 470.8443149229881 2.999999999999972
  endloop
endfacet
facet normal 0.0 0.0 -1.0
  outer loop
    vertex 330.3279604863326 453.84431492298813 2.999999999999972
    vertex 190.32796048633278 453.84431492298813 2.999999999999972
    vertex 207.3279604863328 456.84431492298796 2.999999999999972
  endloop
endfacet
facet normal 0.0 0.0 -1.0
  outer loop
    vertex 196.32796048633278 470.8443149229881 2.999999999999972
    vertex 207.3279604863328 456.84431492298796 2.999999999999972
    vertex 193.32796048633284 470.8443149229881 2.999999999999972
  endloop
endfacet
facet normal 0.0 0.0 -1.0
  outer loop
    vertex 196.32796048633278 558.844314922988 2.999999999999972
    vertex 207.3279604863328 456.84431492298796 2.999999999999972
    vertex 196.32796048633278 470.8443149229881 2.999999999999972
  endloop
endfacet
facet normal 0.0 0.0 -1.0
  outer loop
    vertex 327.32796048633253 456.84431492298796 2.999999999999972
    vertex 330.3279604863326 453.84431492298813 2.999999999999972
    vertex 207.3279604863328 456.84431492298796 2.999999999999972
  endloop
endfacet
facet normal 0.0 0.0 -1.0
  outer loop
    vertex 327.32796048633253 558.844314922988 2.999999999999972
    vertex 330.3279604863326 453.84431492298813 2.999999999999972
    vertex 327.32796048633253 456.84431492298796 2.999999999999972
  endloop
endfacet
facet normal 0.0 0.0 -1.0
  outer loop
    vertex 330.3279604863326 558.844314922988 2.999999999999972
    vertex 330.3279604863326 453.84431492298813 2.999999999999972
    vertex 327.32796048633253 558.844314922988 2.999999999999972
  endloop
endfacet
facet normal 0.0 0.0 -1.0
  outer loop
    vertex 324.32796048633253 558.844314922988 2.999999999999972
    vertex 207.3279604863328 459.844314922988 2.999999999999972
    vertex 196.32796048633278 558.844314922988 2.999999999999972
  endloop
endfacet
facet normal 0.0 0.0 -1.0
  outer loop
    vertex 207.3279604863328 456.84431492298796 2.999999999999972
    vertex 196.32796048633278 558.844314922988 2.999999999999972
    vertex 207.3279604863328 459.844314922988 2.999999999999972
  endloop
endfacet
facet normal 0.0 0.0 -1.0
  outer loop
    vertex 324.32796048633253 459.844314922988 2.999999999999972
    vertex 207.3279604863328 459.844314922988 2.999999999999972
    vertex 324.32796048633253 558.844314922988 2.999999999999972
  endloop
endfacet
facet normal 0.0 0.0 -1.0
  outer loop
    vertex 193.32796048633284 470.8443149229881 2.999999999999972
    vertex 190.32796048633278 558.844314922988 2.999999999999972
    vertex 193.32796048633284 558.844314922988 2.999999999999972
  endloop
endfacet
facet normal -1.0 0.0 0.0
  outer loop
    vertex 207.3279604863328 459.844314922988 2.999999999999972
    vertex 207.3279604863328 459.844314922988 0.0
    vertex 207.3279604863328 456.84431492298796 2.999999999999972
  endloop
endfacet
facet normal -1.0 0.0 0.0
  outer loop
    vertex 207.3279604863328 456.84431492298796 0.0
    vertex 207.3279604863328 456.84431492298796 2.999999999999972
    vertex 207.3279604863328 459.844314922988 0.0
  endloop
endfacet
facet normal 0.0 -1.0 0.0
  outer loop
    vertex 193.32796048633284 470.8443149229881 0.0
    vertex 196.32796048633278 470.8443149229881 0.0
    vertex 193.32796048633284 470.8443149229881 2.999999999999972
  endloop
endfacet
facet normal 0.0 -1.0 0.0
  outer loop
    vertex 196.32796048633278 470.8443149229881 2.999999999999972
    vertex 193.32796048633284 470.8443149229881 2.999999999999972
    vertex 196.32796048633278 470.8443149229881 0.0
  endloop
endfacet
facet normal 0.0 -1.0 0.0
  outer loop
    vertex 190.32796048633278 558.844314922988 2.999999999999972
    vertex 193.32796048633284 558.844314922988 2.999999999999972
    vertex 190.32796048633278 558.844314922988 5.999999999999966
  endloop
endfacet
facet normal 0.0 -1.0 0.0
  outer loop
    vertex 196.32796048633278 558.844314922988 2.999999999999972
    vertex 190.32796048633278 558.844314922988 5.999999999999966
    vertex 193.32796048633284 558.844314922988 2.999999999999972
  endloop
endfacet
facet normal 0.0 -1.0 0.0
  outer loop
    vertex 324.32796048633253 558.844314922988 2.999999999999972
    vertex 190.32796048633278 558.844314922988 5.999999999999966
    vertex 196.32796048633278 558.844314922988 2.999999999999972
  endloop
endfacet
facet normal 0.0 -1.0 0.0
  outer loop
    vertex 327.32796048633253 558.844314922988 2.999999999999972
    vertex 190.32796048633278 558.844314922988 5.999999999999966
    vertex 324.32796048633253 558.844314922988 2.999999999999972
  endloop
endfacet
facet normal 0.0 -1.0 0.0
  outer loop
    vertex 330.3279604863326 558.844314922988 2.999999999999972
    vertex 190.32796048633278 558.844314922988 5.999999999999966
    vertex 327.32796048633253 558.844314922988 2.999999999999972
  endloop
endfacet
facet normal 0.0 -1.0 0.0
  outer loop
    vertex 330.3279604863326 558.844314922988 5.999999999999966
    vertex 190.32796048633278 558.844314922988 5.999999999999966
    vertex 330.3279604863326 558.844314922988 2.999999999999972
  endloop
endfacet
facet normal 0.0 -1.0 0.0
  outer loop
    vertex 324.32796048633253 558.844314922988 0.0
    vertex 327.32796048633253 558.844314922988 0.0
    vertex 324.32796048633253 558.844314922988 2.999999999999972
  endloop
endfacet
facet normal 0.0 -1.0 0.0
  outer loop
    vertex 327.32796048633253 558.844314922988 2.999999999999972
    vertex 324.32796048633253 558.844314922988 2.999999999999972
    vertex 327.32796048633253 558.844314922988 0.0
  endloop
endfacet
facet normal 0.0 -1.0 0.0
  outer loop
    vertex 193.32796048633284 558.844314922988 0.0
    vertex 196.32796048633278 558.844314922988 0.0
    vertex 193.32796048633284 558.844314922988 2.999999999999972
  endloop
endfacet
facet normal 0.0 -1.0 0.0
  outer loop
    vertex 196.32796048633278 558.844314922988 2.999999999999972
    vertex 193.32796048633284 558.844314922988 2.999999999999972
    vertex 196.32796048633278 558.844314922988 0.0
  endloop
endfacet
facet normal -1.0 0.0 0.0
  outer loop
    vertex 190.32796048633278 558.844314922988 5.999999999999966
    vertex 190.32796048633278 558.844314922988 2.999999999999972
    vertex 190.32796048633278 453.84431492298813 5.999999999999966
  endloop
endfacet
facet normal -1.0 0.0 0.0
  outer loop
    vertex 190.32796048633278 453.84431492298813 2.999999999999972
    vertex 190.32796048633278 453.84431492298813 5.999999999999966
    vertex 190.32796048633278 558.844314922988 2.999999999999972
  endloop
endfacet
facet normal -1.0 0.0 0.0
  outer loop
    vertex 324.32796048633253 558.844314922988 2.999999999999972
    vertex 324.32796048633253 558.844314922988 0.0
    vertex 324.32796048633253 459.844314922988 2.999999999999972
  endloop
endfacet
facet normal -1.0 0.0 0.0
  outer loop
    vertex 324.32796048633253 459.844314922988 0.0
    vertex 324.32796048633253 459.844314922988 2.999999999999972
    vertex 324.32796048633253 558.844314922988 0.0
  endloop
endfacet
facet normal 1.0 0.0 0.0
  outer loop
    vertex 327.32796048633253 558.844314922988 0.0
    vertex 327.32796048633253 558.844314922988 2.999999999999972
    vertex 327.32796048633253 456.84431492298796 0.0
  endloop
endfacet
facet normal 1.0 0.0 0.0
  outer loop
    vertex 327.32796048633253 456.84431492298796 2.999999999999972
    vertex 327.32796048633253 456.84431492298796 0.0
    vertex 327.32796048633253 558.844314922988 2.999999999999972
  endloop
endfacet
facet normal 0.0 -1.0 0.0
  outer loop
    vertex 207.3279604863328 456.84431492298796 0.0
    vertex 327.32796048633253 456.84431492298796 0.0
    vertex 207.3279604863328 456.84431492298796 2.999999999999972
  endloop
endfacet
facet normal 0.0 -1.0 0.0
  outer loop
    vertex 327.32796048633253 456.84431492298796 2.999999999999972
    vertex 207.3279604863328 456.84431492298796 2.999999999999972
    vertex 327.32796048633253 456.84431492298796 0.0
  endloop
endfacet
facet normal 1.0 0.0 0.0
  outer loop
    vertex 330.3279604863326 558.844314922988 2.999999999999972
    vertex 330.3279604863326 558.844314922988 5.999999999999966
    vertex 330.3279604863326 453.84431492298813 2.999999999999972
  endloop
endfacet
facet normal 1.0 0.0 0.0
  outer loop
    vertex 330.3279604863326 453.84431492298813 5.999999999999966
    vertex 330.3279604863326 453.84431492298813 2.999999999999972
    vertex 330.3279604863326 558.844314922988 5.999999999999966
  endloop
endfacet
facet normal 0.0 -1.0 0.0
  outer loop
    vertex 190.32796048633278 453.84431492298813 2.999999999999972
    vertex 330.3279604863326 453.84431492298813 2.999999999999972
    vertex 190.32796048633278 453.84431492298813 5.999999999999966
  endloop
endfacet
facet normal 0.0 -1.0 0.0
  outer loop
    vertex 330.3279604863326 453.84431492298813 5.999999999999966
    vertex 190.32796048633278 453.84431492298813 5.999999999999966
    vertex 330.3279604863326 453.84431492298813 2.999999999999972
  endloop
endfacet
facet normal 1.0 0.0 0.0
  outer loop
    vertex 196.32796048633278 558.844314922988 0.0
    vertex 196.32796048633278 558.844314922988 2.999999999999972
    vertex 196.32796048633278 470.8443149229881 0.0
  endloop
endfacet
facet normal 1.0 0.0 0.0
  outer loop
    vertex 196.32796048633278 470.8443149229881 2.999999999999972
    vertex 196.32796048633278 470.8443149229881 0.0
    vertex 196.32796048633278 558.844314922988 2.999999999999972
  endloop
endfacet
facet normal -1.0 0.0 0.0
  outer loop
    vertex 193.32796048633284 558.844314922988 2.999999999999972
    vertex 193.32796048633284 558.844314922988 0.0
    vertex 193.32796048633284 470.8443149229881 2.999999999999972
  endloop
endfacet
facet normal -1.0 0.0 0.0
  outer loop
    vertex 193.32796048633284 470.8443149229881 0.0
    vertex 193.32796048633284 470.8443149229881 2.999999999999972
    vertex 193.32796048633284 558.844314922988 0.0
  endloop
endfacet
facet normal 0.0 1.0 0.0
  outer loop
    vertex 324.32796048633253 459.844314922988 0.0
    vertex 207.3279604863328 459.844314922988 0.0
    vertex 324.32796048633253 459.844314922988 2.999999999999972
  endloop
endfacet
facet normal 0.0 1.0 0.0
  outer loop
    vertex 207.3279604863328 459.844314922988 2.999999999999972
    vertex 324.32796048633253 459.844314922988 2.999999999999972
    vertex 207.3279604863328 459.844314922988 0.0
  endloop
endfacet
facet normal 0.0 0.0 -1.0
  outer loop
    vertex 193.32796048633284 470.8443149229881 0.0
    vertex 193.32796048633284 558.844314922988 0.0
    vertex 196.32796048633278 470.8443149229881 0.0
  endloop
endfacet
facet normal 0.0 0.0 -1.0
  outer loop
    vertex 196.32796048633278 558.844314922988 0.0
    vertex 196.32796048633278 470.8443149229881 0.0
    vertex 193.32796048633284 558.844314922988 0.0
  endloop
endfacet
facet normal 0.0 0.0 -1.0
  outer loop
    vertex 207.3279604863328 456.84431492298796 0.0
    vertex 207.3279604863328 459.844314922988 0.0
    vertex 327.32796048633253 456.84431492298796 0.0
  endloop
endfacet
facet normal 0.0 0.0 -1.0
  outer loop
    vertex 324.32796048633253 459.844314922988 0.0
    vertex 327.32796048633253 456.84431492298796 0.0
    vertex 207.3279604863328 459.844314922988 0.0
  endloop
endfacet
facet normal 0.0 0.0 -1.0
  outer loop
    vertex 324.32796048633253 558.844314922988 0.0
    vertex 327.32796048633253 456.84431492298796 0.0
    vertex 324.32796048633253 459.844314922988 0.0
  endloop
endfacet
facet normal 0.0 0.0 -1.0
  outer loop
    vertex 327.32796048633253 558.844314922988 0.0
    vertex 327.32796048633253 456.84431492298796 0.0
    vertex 324.32796048633253 558.844314922988 0.0
  endloop
endfacet
endsolid Untitled-5bb68329
