solid Untitled-5d49d20f
facet normal 0.0 -1.0 0.0
  outer loop
    vertex 322.5 0.0 25.0
    vertex 12.5 0.0 1.4099832412739487e-15
    vertex 322.5 0.0 0.0
  endloop
endfacet
facet normal 0.0 -1.0 0.0
  outer loop
    vertex 12.5 0.0 1.4099832412739487e-15
    vertex 322.5 0.0 25.0
    vertex 12.5 0.0 25.0
  endloop
endfacet
facet normal -1.0 0.0 0.0
  outer loop
    vertex 12.5 210.00000000000006 25.0
    vertex 12.5 0.0 1.4099832412739487e-15
    vertex 12.5 0.0 25.0
  endloop
endfacet
facet normal -1.0 0.0 0.0
  outer loop
    vertex 12.5 0.0 1.4099832412739487e-15
    vertex 12.5 210.00000000000006 25.0
    vertex 12.5 210.00000000000006 0.0
  endloop
endfacet
facet normal -2.3741492256816668e-18 -2.36062225651864e-18 -1.0
  outer loop
    vertex 335.0 213.0000000000001 0.0
    vertex 0.0 210.00000000000006 0.0
    vertex 0.0 213.0000000000001 1.4099832412739487e-15
  endloop
endfacet
facet normal -2.3741492256816668e-18 -2.36062225651864e-18 -1.0
  outer loop
    vertex 0.0 210.00000000000006 0.0
    vertex 335.0 213.0000000000001 0.0
    vertex 12.5 210.00000000000006 0.0
  endloop
endfacet
facet normal -2.3741492256816668e-18 -2.36062225651864e-18 -1.0
  outer loop
    vertex 12.5 210.00000000000006 0.0
    vertex 335.0 213.0000000000001 0.0
    vertex 15.5 207.00000000000003 2.255973186038318e-14
  endloop
endfacet
facet normal -2.3741492256816668e-18 -2.36062225651864e-18 -1.0
  outer loop
    vertex 12.5 210.00000000000006 0.0
    vertex 15.5 207.00000000000003 2.255973186038318e-14
    vertex 12.5 0.0 1.4099832412739487e-15
  endloop
endfacet
facet normal -2.3741492256816668e-18 -2.36062225651864e-18 -1.0
  outer loop
    vertex 15.5 207.00000000000003 2.255973186038318e-14
    vertex 335.0 213.0000000000001 0.0
    vertex 322.5 210.00000000000006 0.0
  endloop
endfacet
facet normal -2.3741492256816668e-18 -2.36062225651864e-18 -1.0
  outer loop
    vertex 15.5 207.00000000000003 2.255973186038318e-14
    vertex 322.5 210.00000000000006 0.0
    vertex 319.5 207.00000000000003 2.255973186038318e-14
  endloop
endfacet
facet normal -2.3741492256816668e-18 -2.36062225651864e-18 -1.0
  outer loop
    vertex 319.5 207.00000000000003 2.255973186038318e-14
    vertex 322.5 210.00000000000006 0.0
    vertex 319.5 2.9999999999999947 2.255973186038318e-14
  endloop
endfacet
facet normal -2.3741492256816668e-18 -2.36062225651864e-18 -1.0
  outer loop
    vertex 322.5 210.00000000000006 0.0
    vertex 335.0 213.0000000000001 0.0
    vertex 335.0 210.00000000000006 0.0
  endloop
endfacet
facet normal -2.3741492256816668e-18 -2.36062225651864e-18 -1.0
  outer loop
    vertex 12.5 0.0 1.4099832412739487e-15
    vertex 15.5 2.9999999999999947 2.255973186038318e-14
    vertex 322.5 0.0 0.0
  endloop
endfacet
facet normal -2.3741492256816668e-18 -2.36062225651864e-18 -1.0
  outer loop
    vertex 15.5 2.9999999999999947 2.255973186038318e-14
    vertex 12.5 0.0 1.4099832412739487e-15
    vertex 15.5 207.00000000000003 2.255973186038318e-14
  endloop
endfacet
facet normal -2.3741492256816668e-18 -2.36062225651864e-18 -1.0
  outer loop
    vertex 322.5 0.0 0.0
    vertex 15.5 2.9999999999999947 2.255973186038318e-14
    vertex 319.5 2.9999999999999947 2.255973186038318e-14
  endloop
endfacet
facet normal -2.3741492256816668e-18 -2.36062225651864e-18 -1.0
  outer loop
    vertex 322.5 0.0 0.0
    vertex 319.5 2.9999999999999947 2.255973186038318e-14
    vertex 322.5 210.00000000000006 0.0
  endloop
endfacet
facet normal 1.0 0.0 0.0
  outer loop
    vertex 322.5 210.00000000000006 0.0
    vertex 322.5 0.0 25.0
    vertex 322.5 0.0 0.0
  endloop
endfacet
facet normal 1.0 0.0 0.0
  outer loop
    vertex 322.5 0.0 25.0
    vertex 322.5 210.00000000000006 0.0
    vertex 322.5 210.00000000000006 25.0
  endloop
endfacet
facet normal 0.0 0.0 1.0
  outer loop
    vertex 15.440312514521878 2.940312514521879 25.0
    vertex 15.5 2.9999999999999947 25.0
    vertex 15.440312514521878 207.05968748547824 25.0
  endloop
endfacet
facet normal 0.0 0.0 1.0
  outer loop
    vertex 15.5 2.9999999999999947 25.0
    vertex 15.440312514521878 2.940312514521879 25.0
    vertex 319.55968748547815 2.940312514521879 25.0
  endloop
endfacet
facet normal 0.0 0.0 1.0
  outer loop
    vertex 15.5 2.9999999999999947 25.0
    vertex 319.55968748547815 2.940312514521879 25.0
    vertex 319.5 2.9999999999999947 25.0
  endloop
endfacet
facet normal 0.0 0.0 1.0
  outer loop
    vertex 319.5 2.9999999999999947 25.0
    vertex 319.55968748547815 2.940312514521879 25.0
    vertex 319.5 207.00000000000003 25.0
  endloop
endfacet
facet normal 0.0 0.0 1.0
  outer loop
    vertex 15.440312514521878 207.05968748547824 25.0
    vertex 15.5 207.00000000000003 25.0
    vertex 319.55968748547815 207.05968748547824 25.0
  endloop
endfacet
facet normal 0.0 0.0 1.0
  outer loop
    vertex 15.5 207.00000000000003 25.0
    vertex 15.440312514521878 207.05968748547824 25.0
    vertex 15.5 2.9999999999999947 25.0
  endloop
endfacet
facet normal 0.0 0.0 1.0
  outer loop
    vertex 319.55968748547815 207.05968748547824 25.0
    vertex 15.5 207.00000000000003 25.0
    vertex 319.5 207.00000000000003 25.0
  endloop
endfacet
facet normal 0.0 0.0 1.0
  outer loop
    vertex 319.55968748547815 207.05968748547824 25.0
    vertex 319.5 207.00000000000003 25.0
    vertex 319.55968748547815 2.940312514521879 25.0
  endloop
endfacet
facet normal 0.0 0.0 1.0
  outer loop
    vertex 12.5 0.0 25.0
    vertex 15.440312514521878 2.940312514521879 25.0
    vertex 12.5 210.00000000000006 25.0
  endloop
endfacet
facet normal 0.0 0.0 1.0
  outer loop
    vertex 15.440312514521878 2.940312514521879 25.0
    vertex 12.5 0.0 25.0
    vertex 322.5 0.0 25.0
  endloop
endfacet
facet normal 0.0 0.0 1.0
  outer loop
    vertex 15.440312514521878 2.940312514521879 25.0
    vertex 322.5 0.0 25.0
    vertex 319.55968748547815 2.940312514521879 25.0
  endloop
endfacet
facet normal 0.0 0.0 1.0
  outer loop
    vertex 319.55968748547815 2.940312514521879 25.0
    vertex 322.5 0.0 25.0
    vertex 319.55968748547815 207.05968748547824 25.0
  endloop
endfacet
facet normal 0.0 0.0 1.0
  outer loop
    vertex 12.5 210.00000000000006 25.0
    vertex 0.0 213.0000000000001 25.0
    vertex 0.0 210.00000000000006 25.0
  endloop
endfacet
facet normal 0.0 0.0 1.0
  outer loop
    vertex 0.0 213.0000000000001 25.0
    vertex 12.5 210.00000000000006 25.0
    vertex 335.0 213.0000000000001 25.0
  endloop
endfacet
facet normal 0.0 0.0 1.0
  outer loop
    vertex 335.0 213.0000000000001 25.0
    vertex 12.5 210.00000000000006 25.0
    vertex 15.440312514521878 207.05968748547824 25.0
  endloop
endfacet
facet normal 0.0 0.0 1.0
  outer loop
    vertex 15.440312514521878 207.05968748547824 25.0
    vertex 12.5 210.00000000000006 25.0
    vertex 15.440312514521878 2.940312514521879 25.0
  endloop
endfacet
facet normal 0.0 0.0 1.0
  outer loop
    vertex 335.0 213.0000000000001 25.0
    vertex 15.440312514521878 207.05968748547824 25.0
    vertex 322.5 210.00000000000006 25.0
  endloop
endfacet
facet normal 0.0 0.0 1.0
  outer loop
    vertex 322.5 210.00000000000006 25.0
    vertex 15.440312514521878 207.05968748547824 25.0
    vertex 319.55968748547815 207.05968748547824 25.0
  endloop
endfacet
facet normal 0.0 0.0 1.0
  outer loop
    vertex 322.5 210.00000000000006 25.0
    vertex 319.55968748547815 207.05968748547824 25.0
    vertex 322.5 0.0 25.0
  endloop
endfacet
facet normal 0.0 0.0 1.0
  outer loop
    vertex 335.0 213.0000000000001 25.0
    vertex 322.5 210.00000000000006 25.0
    vertex 335.0 210.00000000000006 25.0
  endloop
endfacet
facet normal -1.0 0.0 0.0
  outer loop
    vertex 319.5 207.00000000000003 25.0
    vertex 319.5 2.9999999999999947 3.0000000000000226
    vertex 319.5 2.9999999999999947 25.0
  endloop
endfacet
facet normal -1.0 0.0 0.0
  outer loop
    vertex 319.5 2.9999999999999947 3.0000000000000226
    vertex 319.5 207.00000000000003 25.0
    vertex 319.5 207.00000000000003 3.0000000000000226
  endloop
endfacet
facet normal 0.0 -1.0 0.0
  outer loop
    vertex 319.5 207.00000000000003 25.0
    vertex 15.5 207.00000000000003 3.0000000000000226
    vertex 319.5 207.00000000000003 3.0000000000000226
  endloop
endfacet
facet normal 0.0 -1.0 0.0
  outer loop
    vertex 15.5 207.00000000000003 3.0000000000000226
    vertex 319.5 207.00000000000003 25.0
    vertex 15.5 207.00000000000003 25.0
  endloop
endfacet
facet normal 1.0 0.0 0.0
  outer loop
    vertex 15.5 207.00000000000003 3.0000000000000226
    vertex 15.5 2.9999999999999947 25.0
    vertex 15.5 2.9999999999999947 3.0000000000000226
  endloop
endfacet
facet normal 1.0 0.0 0.0
  outer loop
    vertex 15.5 2.9999999999999947 25.0
    vertex 15.5 207.00000000000003 3.0000000000000226
    vertex 15.5 207.00000000000003 25.0
  endloop
endfacet
facet normal 0.0 1.0 0.0
  outer loop
    vertex 15.5 2.9999999999999947 25.0
    vertex 319.5 2.9999999999999947 3.0000000000000226
    vertex 15.5 2.9999999999999947 3.0000000000000226
  endloop
endfacet
facet normal 0.0 1.0 0.0
  outer loop
    vertex 319.5 2.9999999999999947 3.0000000000000226
    vertex 15.5 2.9999999999999947 25.0
    vertex 319.5 2.9999999999999947 25.0
  endloop
endfacet
facet normal -0.0 -0.0 -1.0
  outer loop
    vertex 319.5 207.00000000000003 2.255973186038318e-14
    vertex 15.5 2.9999999999999947 2.255973186038318e-14
    vertex 15.5 207.00000000000003 2.255973186038318e-14
  endloop
endfacet
facet normal -0.0 -0.0 -1.0
  outer loop
    vertex 15.5 2.9999999999999947 2.255973186038318e-14
    vertex 319.5 207.00000000000003 2.255973186038318e-14
    vertex 319.5 2.9999999999999947 2.255973186038318e-14
  endloop
endfacet
facet normal 0.0 0.0 1.0
  outer loop
    vertex 319.5 2.9999999999999947 3.0000000000000226
    vertex 15.5 207.00000000000003 3.0000000000000226
    vertex 15.5 2.9999999999999947 3.0000000000000226
  endloop
endfacet
facet normal 0.0 0.0 1.0
  outer loop
    vertex 15.5 207.00000000000003 3.0000000000000226
    vertex 319.5 2.9999999999999947 3.0000000000000226
    vertex 319.5 207.00000000000003 3.0000000000000226
  endloop
endfacet
facet normal -1.0 0.0 0.0
  outer loop
    vertex 0.0 213.0000000000001 25.0
    vertex 0.0 210.00000000000006 0.0
    vertex 0.0 210.00000000000006 25.0
  endloop
endfacet
facet normal -1.0 0.0 0.0
  outer loop
    vertex 0.0 210.00000000000006 0.0
    vertex 0.0 213.0000000000001 25.0
    vertex 0.0 213.0000000000001 1.4099832412739487e-15
  endloop
endfacet
facet normal 0.0 -1.0 0.0
  outer loop
    vertex 12.5 210.00000000000006 25.0
    vertex 0.0 210.00000000000006 0.0
    vertex 12.5 210.00000000000006 0.0
  endloop
endfacet
facet normal 0.0 -1.0 0.0
  outer loop
    vertex 0.0 210.00000000000006 0.0
    vertex 12.5 210.00000000000006 25.0
    vertex 0.0 210.00000000000006 25.0
  endloop
endfacet
facet normal 1.0 0.0 0.0
  outer loop
    vertex 335.0 213.0000000000001 0.0
    vertex 335.0 210.00000000000006 25.0
    vertex 335.0 210.00000000000006 0.0
  endloop
endfacet
facet normal 1.0 0.0 0.0
  outer loop
    vertex 335.0 210.00000000000006 25.0
    vertex 335.0 213.0000000000001 0.0
    vertex 335.0 213.0000000000001 25.0
  endloop
endfacet
facet normal -0.0 -1.0 -0.0
  outer loop
    vertex 335.0 210.00000000000006 25.0
    vertex 322.5 210.00000000000006 0.0
    vertex 335.0 210.00000000000006 0.0
  endloop
endfacet
facet normal -0.0 -1.0 -0.0
  outer loop
    vertex 322.5 210.00000000000006 0.0
    vertex 335.0 210.00000000000006 25.0
    vertex 322.5 210.00000000000006 25.0
  endloop
endfacet
facet normal 0.0 1.0 0.0
  outer loop
    vertex 0.0 213.0000000000001 25.0
    vertex 147.50000000000003 213.0000000000001 7.5
    vertex 0.0 213.0000000000001 1.4099832412739487e-15
  endloop
endfacet
facet normal 0.0 1.0 0.0
  outer loop
    vertex 147.50000000000003 213.0000000000001 7.5
    vertex 0.0 213.0000000000001 25.0
    vertex 147.50000000000003 213.0000000000001 17.5
  endloop
endfacet
facet normal 0.0 1.0 0.0
  outer loop
    vertex 147.50000000000003 213.0000000000001 17.5
    vertex 0.0 213.0000000000001 25.0
    vertex 187.50000000000003 213.0000000000001 17.5
  endloop
endfacet
facet normal 0.0 1.0 0.0
  outer loop
    vertex 335.0 213.0000000000001 0.0
    vertex 187.50000000000003 213.0000000000001 7.5
    vertex 335.0 213.0000000000001 25.0
  endloop
endfacet
facet normal 0.0 1.0 0.0
  outer loop
    vertex 187.50000000000003 213.0000000000001 7.5
    vertex 335.0 213.0000000000001 0.0
    vertex 0.0 213.0000000000001 1.4099832412739487e-15
  endloop
endfacet
facet normal 0.0 1.0 0.0
  outer loop
    vertex 187.50000000000003 213.0000000000001 7.5
    vertex 0.0 213.0000000000001 1.4099832412739487e-15
    vertex 147.50000000000003 213.0000000000001 7.5
  endloop
endfacet
facet normal 0.0 1.0 0.0
  outer loop
    vertex 335.0 213.0000000000001 25.0
    vertex 187.50000000000003 213.0000000000001 7.5
    vertex 187.50000000000003 213.0000000000001 17.5
  endloop
endfacet
facet normal 0.0 1.0 0.0
  outer loop
    vertex 335.0 213.0000000000001 25.0
    vertex 187.50000000000003 213.0000000000001 17.5
    vertex 0.0 213.0000000000001 25.0
  endloop
endfacet
facet normal 0.0 1.0 0.0
  outer loop
    vertex 147.50000000000003 233.00000000000006 17.5
    vertex 187.50000000000003 233.00000000000006 7.5
    vertex 147.50000000000003 233.00000000000006 7.5
  endloop
endfacet
facet normal 0.0 1.0 0.0
  outer loop
    vertex 187.50000000000003 233.00000000000006 7.5
    vertex 147.50000000000003 233.00000000000006 17.5
    vertex 187.50000000000003 233.00000000000006 17.5
  endloop
endfacet
facet normal 0.0 0.0 1.0
  outer loop
    vertex 187.50000000000003 213.0000000000001 17.5
    vertex 147.50000000000003 233.00000000000006 17.5
    vertex 147.50000000000003 213.0000000000001 17.5
  endloop
endfacet
facet normal 0.0 0.0 1.0
  outer loop
    vertex 147.50000000000003 233.00000000000006 17.5
    vertex 187.50000000000003 213.0000000000001 17.5
    vertex 187.50000000000003 233.00000000000006 17.5
  endloop
endfacet
facet normal 1.0 0.0 0.0
  outer loop
    vertex 187.50000000000003 233.00000000000006 7.5
    vertex 187.50000000000003 213.0000000000001 17.5
    vertex 187.50000000000003 213.0000000000001 7.5
  endloop
endfacet
facet normal 1.0 0.0 0.0
  outer loop
    vertex 187.50000000000003 213.0000000000001 17.5
    vertex 187.50000000000003 233.00000000000006 7.5
    vertex 187.50000000000003 233.00000000000006 17.5
  endloop
endfacet
facet normal -0.0 -0.0 -1.0
  outer loop
    vertex 187.50000000000003 233.00000000000006 7.5
    vertex 147.50000000000003 213.0000000000001 7.5
    vertex 147.50000000000003 233.00000000000006 7.5
  endloop
endfacet
facet normal -0.0 -0.0 -1.0
  outer loop
    vertex 147.50000000000003 213.0000000000001 7.5
    vertex 187.50000000000003 233.00000000000006 7.5
    vertex 187.50000000000003 213.0000000000001 7.5
  endloop
endfacet
facet normal -1.0 0.0 0.0
  outer loop
    vertex 147.50000000000003 233.00000000000006 17.5
    vertex 147.50000000000003 213.0000000000001 7.5
    vertex 147.50000000000003 213.0000000000001 17.5
  endloop
endfacet
facet normal -1.0 0.0 0.0
  outer loop
    vertex 147.50000000000003 213.0000000000001 7.5
    vertex 147.50000000000003 233.00000000000006 17.5
    vertex 147.50000000000003 233.00000000000006 7.5
  endloop
endfacet
endsolid Untitled-5d49d20f
