solid Untitled-5d49d186
facet normal 1.0 0.0 0.0
  outer loop
    vertex 335.0 210.00000000000003 -2.9999999999999494
    vertex 335.0 0.0 0.0
    vertex 335.0 0.0 -2.9999999999999494
  endloop
endfacet
facet normal 1.0 0.0 0.0
  outer loop
    vertex 335.0 0.0 0.0
    vertex 335.0 210.00000000000003 -2.9999999999999494
    vertex 335.0 210.00000000000003 0.0
  endloop
endfacet
facet normal -0.0 -1.0 -0.0
  outer loop
    vertex 335.0 0.0 0.0
    vertex 0.0 0.0 -2.9999999999999494
    vertex 335.0 0.0 -2.9999999999999494
  endloop
endfacet
facet normal -0.0 -1.0 -0.0
  outer loop
    vertex 0.0 0.0 -2.9999999999999494
    vertex 335.0 0.0 0.0
    vertex 0.0 0.0 0.0
  endloop
endfacet
facet normal -1.0 0.0 0.0
  outer loop
    vertex 0.0 210.00000000000003 0.0
    vertex 0.0 0.0 -2.9999999999999494
    vertex 0.0 0.0 0.0
  endloop
endfacet
facet normal -1.0 0.0 0.0
  outer loop
    vertex 0.0 0.0 -2.9999999999999494
    vertex 0.0 210.00000000000003 0.0
    vertex 0.0 210.00000000000003 -2.9999999999999494
  endloop
endfacet
facet normal -0.7933533402912364 0.6087614290087192 0.0
  outer loop
    vertex 180.49038105676658 97.50000000000001 0.0
    vertex 178.1066017177982 94.3933982822018 -3.0000000000004006
    vertex 178.1066017177982 94.3933982822018 0.0
  endloop
endfacet
facet normal -0.7933533402912364 0.6087614290087192 0.0
  outer loop
    vertex 178.1066017177982 94.3933982822018 -3.0000000000004006
    vertex 180.49038105676658 97.50000000000001 0.0
    vertex 180.49038105676658 97.50000000000001 -3.0000000000004006
  endloop
endfacet
facet normal 0.9914448613738106 0.13052619222005007 0.0
  outer loop
    vertex 152.5 105.00000000000001 -3.0000000000004006
    vertex 153.01111260566398 101.1177143234622 0.0
    vertex 153.01111260566398 101.1177143234622 -3.0000000000004006
  endloop
endfacet
facet normal 0.9914448613738106 0.13052619222005007 0.0
  outer loop
    vertex 153.01111260566398 101.1177143234622 0.0
    vertex 152.5 105.00000000000001 -3.0000000000004006
    vertex 152.5 105.00000000000001 0.0
  endloop
endfacet
facet normal -0.608761429008721 0.7933533402912349 0.0
  outer loop
    vertex 175.00000000000003 92.00961894323343 0.0
    vertex 178.1066017177982 94.3933982822018 -3.0000000000004006
    vertex 175.00000000000003 92.00961894323343 -3.0000000000004006
  endloop
endfacet
facet normal -0.608761429008721 0.7933533402912349 0.0
  outer loop
    vertex 178.1066017177982 94.3933982822018 -3.0000000000004006
    vertex 175.00000000000003 92.00961894323343 0.0
    vertex 178.1066017177982 94.3933982822018 0.0
  endloop
endfacet
facet normal 0.7933533402912364 -0.6087614290087192 0.0
  outer loop
    vertex 156.8933982822018 115.6066017177982 -3.0000000000004006
    vertex 154.50961894323345 112.5 0.0
    vertex 154.50961894323345 112.5 -3.0000000000004006
  endloop
endfacet
facet normal 0.7933533402912364 -0.6087614290087192 0.0
  outer loop
    vertex 154.50961894323345 112.5 0.0
    vertex 156.8933982822018 115.6066017177982 -3.0000000000004006
    vertex 156.8933982822018 115.6066017177982 0.0
  endloop
endfacet
facet normal 0.9238795325112856 -0.3826834323650927 0.0
  outer loop
    vertex 154.50961894323345 112.5 -3.0000000000004006
    vertex 153.01111260566398 108.88228567653782 0.0
    vertex 153.01111260566398 108.88228567653782 -3.0000000000004006
  endloop
endfacet
facet normal 0.9238795325112856 -0.3826834323650927 0.0
  outer loop
    vertex 153.01111260566398 108.88228567653782 0.0
    vertex 154.50961894323345 112.5 -3.0000000000004006
    vertex 154.50961894323345 112.5 0.0
  endloop
endfacet
facet normal 0.923879532511286 0.38268343236509167 0.0
  outer loop
    vertex 153.01111260566398 101.1177143234622 -3.0000000000004006
    vertex 154.50961894323345 97.5 0.0
    vertex 154.50961894323345 97.5 -3.0000000000004006
  endloop
endfacet
facet normal 0.923879532511286 0.38268343236509167 0.0
  outer loop
    vertex 154.50961894323345 97.5 0.0
    vertex 153.01111260566398 101.1177143234622 -3.0000000000004006
    vertex 153.01111260566398 101.1177143234622 0.0
  endloop
endfacet
facet normal 0.9914448613738106 -0.13052619222005044 0.0
  outer loop
    vertex 153.01111260566398 108.88228567653782 -3.0000000000004006
    vertex 152.5 105.00000000000001 0.0
    vertex 152.5 105.00000000000001 -3.0000000000004006
  endloop
endfacet
facet normal 0.9914448613738106 -0.13052619222005044 0.0
  outer loop
    vertex 152.5 105.00000000000001 0.0
    vertex 153.01111260566398 108.88228567653782 -3.0000000000004006
    vertex 153.01111260566398 108.88228567653782 0.0
  endloop
endfacet
facet normal -0.3826834323650907 0.9238795325112865 0.0
  outer loop
    vertex 171.3822856765378 90.51111260566398 0.0
    vertex 175.00000000000003 92.00961894323343 -3.0000000000004006
    vertex 171.3822856765378 90.51111260566398 -3.0000000000004006
  endloop
endfacet
facet normal -0.3826834323650907 0.9238795325112865 0.0
  outer loop
    vertex 175.00000000000003 92.00961894323343 -3.0000000000004006
    vertex 171.3822856765378 90.51111260566398 0.0
    vertex 175.00000000000003 92.00961894323343 0.0
  endloop
endfacet
facet normal -0.13052619222005044 0.9914448613738106 0.0
  outer loop
    vertex 167.5 90.00000000000001 0.0
    vertex 171.3822856765378 90.51111260566398 -3.0000000000004006
    vertex 167.5 90.00000000000001 -3.0000000000004006
  endloop
endfacet
facet normal -0.13052619222005044 0.9914448613738106 0.0
  outer loop
    vertex 171.3822856765378 90.51111260566398 -3.0000000000004006
    vertex 167.5 90.00000000000001 0.0
    vertex 171.3822856765378 90.51111260566398 0.0
  endloop
endfacet
facet normal 0.13052619222005044 0.9914448613738106 0.0
  outer loop
    vertex 163.6177143234622 90.51111260566398 0.0
    vertex 167.5 90.00000000000001 -3.0000000000004006
    vertex 163.6177143234622 90.51111260566398 -3.0000000000004006
  endloop
endfacet
facet normal 0.13052619222005044 0.9914448613738106 0.0
  outer loop
    vertex 167.5 90.00000000000001 -3.0000000000004006
    vertex 163.6177143234622 90.51111260566398 0.0
    vertex 167.5 90.00000000000001 0.0
  endloop
endfacet
facet normal 0.6087614290087228 -0.7933533402912335 0.0
  outer loop
    vertex 160.0 117.99038105676658 0.0
    vertex 156.8933982822018 115.6066017177982 -3.0000000000004006
    vertex 160.0 117.99038105676658 -3.0000000000004006
  endloop
endfacet
facet normal 0.6087614290087228 -0.7933533402912335 0.0
  outer loop
    vertex 156.8933982822018 115.6066017177982 -3.0000000000004006
    vertex 160.0 117.99038105676658 0.0
    vertex 156.8933982822018 115.6066017177982 0.0
  endloop
endfacet
facet normal 0.3826834323650902 0.9238795325112866 0.0
  outer loop
    vertex 160.00000000000003 92.00961894323343 0.0
    vertex 163.6177143234622 90.51111260566398 -3.0000000000004006
    vertex 160.00000000000003 92.00961894323343 -3.0000000000004006
  endloop
endfacet
facet normal 0.3826834323650902 0.9238795325112866 0.0
  outer loop
    vertex 163.6177143234622 90.51111260566398 -3.0000000000004006
    vertex 160.00000000000003 92.00961894323343 0.0
    vertex 163.6177143234622 90.51111260566398 0.0
  endloop
endfacet
facet normal 0.60876142900872 0.7933533402912356 0.0
  outer loop
    vertex 156.8933982822018 94.3933982822018 0.0
    vertex 160.00000000000003 92.00961894323343 -3.0000000000004006
    vertex 156.8933982822018 94.3933982822018 -3.0000000000004006
  endloop
endfacet
facet normal 0.60876142900872 0.7933533402912356 0.0
  outer loop
    vertex 160.00000000000003 92.00961894323343 -3.0000000000004006
    vertex 156.8933982822018 94.3933982822018 0.0
    vertex 160.00000000000003 92.00961894323343 0.0
  endloop
endfacet
facet normal 0.7933533402912352 0.6087614290087205 0.0
  outer loop
    vertex 154.50961894323345 97.5 -3.0000000000004006
    vertex 156.8933982822018 94.3933982822018 0.0
    vertex 156.8933982822018 94.3933982822018 -3.0000000000004006
  endloop
endfacet
facet normal 0.7933533402912352 0.6087614290087205 0.0
  outer loop
    vertex 156.8933982822018 94.3933982822018 0.0
    vertex 154.50961894323345 97.5 -3.0000000000004006
    vertex 154.50961894323345 97.5 0.0
  endloop
endfacet
facet normal 0.3826834323650947 -0.9238795325112849 -1.5665330296504905e-18
  outer loop
    vertex 162.5 119.02591496269933 -2.9999999999999494
    vertex 160.0 117.99038105676658 0.0
    vertex 160.0 117.99038105676658 -3.0000000000004006
  endloop
endfacet
facet normal 0.3826834323650947 -0.9238795325112849 -1.5665330296504905e-18
  outer loop
    vertex 160.0 117.99038105676658 0.0
    vertex 162.5 119.02591496269933 -2.9999999999999494
    vertex 162.5 119.02591496269933 0.0
  endloop
endfacet
facet normal -0.923879532511286 0.38268343236509167 0.0
  outer loop
    vertex 181.98888739433605 101.11771432346221 0.0
    vertex 180.49038105676658 97.50000000000001 -3.0000000000004006
    vertex 180.49038105676658 97.50000000000001 0.0
  endloop
endfacet
facet normal -0.923879532511286 0.38268343236509167 0.0
  outer loop
    vertex 180.49038105676658 97.50000000000001 -3.0000000000004006
    vertex 181.98888739433605 101.11771432346221 0.0
    vertex 181.98888739433605 101.11771432346221 -3.0000000000004006
  endloop
endfacet
facet normal -0.9914448613738106 0.13052619222005044 0.0
  outer loop
    vertex 182.5 105.00000000000001 0.0
    vertex 181.98888739433605 101.11771432346221 -3.0000000000004006
    vertex 181.98888739433605 101.11771432346221 0.0
  endloop
endfacet
facet normal -0.9914448613738106 0.13052619222005044 0.0
  outer loop
    vertex 181.98888739433605 101.11771432346221 -3.0000000000004006
    vertex 182.5 105.00000000000001 0.0
    vertex 182.5 105.00000000000001 -3.0000000000004006
  endloop
endfacet
facet normal -0.9914448613738106 -0.13052619222004969 0.0
  outer loop
    vertex 181.98888739433605 108.88228567653785 0.0
    vertex 182.5 105.00000000000001 -3.0000000000004006
    vertex 182.5 105.00000000000001 0.0
  endloop
endfacet
facet normal -0.9914448613738106 -0.13052619222004969 0.0
  outer loop
    vertex 182.5 105.00000000000001 -3.0000000000004006
    vertex 181.98888739433605 108.88228567653785 0.0
    vertex 181.98888739433605 108.88228567653785 -3.0000000000004006
  endloop
endfacet
facet normal -0.9238795325112856 -0.3826834323650927 0.0
  outer loop
    vertex 180.49038105676658 112.50000000000001 0.0
    vertex 181.98888739433605 108.88228567653785 -3.0000000000004006
    vertex 181.98888739433605 108.88228567653785 0.0
  endloop
endfacet
facet normal -0.9238795325112856 -0.3826834323650927 0.0
  outer loop
    vertex 181.98888739433605 108.88228567653785 -3.0000000000004006
    vertex 180.49038105676658 112.50000000000001 0.0
    vertex 180.49038105676658 112.50000000000001 -3.0000000000004006
  endloop
endfacet
facet normal -0.7933533402912364 -0.6087614290087192 0.0
  outer loop
    vertex 178.1066017177982 115.60660171779823 0.0
    vertex 180.49038105676658 112.50000000000001 -3.0000000000004006
    vertex 180.49038105676658 112.50000000000001 0.0
  endloop
endfacet
facet normal -0.7933533402912364 -0.6087614290087192 0.0
  outer loop
    vertex 180.49038105676658 112.50000000000001 -3.0000000000004006
    vertex 178.1066017177982 115.60660171779823 0.0
    vertex 178.1066017177982 115.60660171779823 -3.0000000000004006
  endloop
endfacet
facet normal -0.6087614290087163 -0.7933533402912384 0.0
  outer loop
    vertex 178.1066017177982 115.60660171779823 0.0
    vertex 175.0 117.99038105676658 -3.0000000000004006
    vertex 178.1066017177982 115.60660171779823 -3.0000000000004006
  endloop
endfacet
facet normal -0.6087614290087163 -0.7933533402912384 0.0
  outer loop
    vertex 175.0 117.99038105676658 -3.0000000000004006
    vertex 178.1066017177982 115.60660171779823 0.0
    vertex 175.0 117.99038105676658 0.0
  endloop
endfacet
facet normal -0.38268343236509467 -0.9238795325112849 1.0330395398422617e-17
  outer loop
    vertex 175.0 117.99038105676658 0.0
    vertex 172.5 119.02591496269933 -2.9999999999999494
    vertex 175.0 117.99038105676658 -3.0000000000004006
  endloop
endfacet
facet normal -0.38268343236509467 -0.9238795325112849 1.0330395398422617e-17
  outer loop
    vertex 172.5 119.02591496269933 -2.9999999999999494
    vertex 175.0 117.99038105676658 0.0
    vertex 172.5 119.02591496269933 0.0
  endloop
endfacet
facet normal 0.0 1.0 0.0
  outer loop
    vertex 172.5 210.00000000000003 0.0
    vertex 335.0 210.00000000000003 -2.9999999999999494
    vertex 172.5 210.00000000000003 -2.9999999999999494
  endloop
endfacet
facet normal 0.0 1.0 0.0
  outer loop
    vertex 335.0 210.00000000000003 -2.9999999999999494
    vertex 172.5 210.00000000000003 0.0
    vertex 335.0 210.00000000000003 0.0
  endloop
endfacet
facet normal 0.0 0.0 1.0
  outer loop
    vertex 0.0 0.0 0.0
    vertex 160.00000000000003 92.00961894323343 0.0
    vertex 0.0 210.00000000000003 0.0
  endloop
endfacet
facet normal 0.0 0.0 1.0
  outer loop
    vertex 160.00000000000003 92.00961894323343 0.0
    vertex 0.0 0.0 0.0
    vertex 335.0 0.0 0.0
  endloop
endfacet
facet normal 0.0 0.0 1.0
  outer loop
    vertex 0.0 210.00000000000003 0.0
    vertex 160.00000000000003 92.00961894323343 0.0
    vertex 156.8933982822018 94.3933982822018 0.0
  endloop
endfacet
facet normal 0.0 0.0 1.0
  outer loop
    vertex 0.0 210.00000000000003 0.0
    vertex 156.8933982822018 94.3933982822018 0.0
    vertex 154.50961894323345 97.5 0.0
  endloop
endfacet
facet normal 0.0 0.0 1.0
  outer loop
    vertex 0.0 210.00000000000003 0.0
    vertex 154.50961894323345 97.5 0.0
    vertex 153.01111260566398 101.1177143234622 0.0
  endloop
endfacet
facet normal 0.0 0.0 1.0
  outer loop
    vertex 0.0 210.00000000000003 0.0
    vertex 153.01111260566398 101.1177143234622 0.0
    vertex 152.5 105.00000000000001 0.0
  endloop
endfacet
facet normal 0.0 0.0 1.0
  outer loop
    vertex 160.00000000000003 92.00961894323343 0.0
    vertex 335.0 0.0 0.0
    vertex 163.6177143234622 90.51111260566398 0.0
  endloop
endfacet
facet normal 0.0 0.0 1.0
  outer loop
    vertex 163.6177143234622 90.51111260566398 0.0
    vertex 335.0 0.0 0.0
    vertex 167.5 90.00000000000001 0.0
  endloop
endfacet
facet normal 0.0 0.0 1.0
  outer loop
    vertex 167.5 90.00000000000001 0.0
    vertex 335.0 0.0 0.0
    vertex 171.3822856765378 90.51111260566398 0.0
  endloop
endfacet
facet normal 0.0 0.0 1.0
  outer loop
    vertex 171.3822856765378 90.51111260566398 0.0
    vertex 335.0 0.0 0.0
    vertex 175.00000000000003 92.00961894323343 0.0
  endloop
endfacet
facet normal 0.0 0.0 1.0
  outer loop
    vertex 175.00000000000003 92.00961894323343 0.0
    vertex 335.0 0.0 0.0
    vertex 178.1066017177982 94.3933982822018 0.0
  endloop
endfacet
facet normal 0.0 0.0 1.0
  outer loop
    vertex 178.1066017177982 94.3933982822018 0.0
    vertex 335.0 0.0 0.0
    vertex 180.49038105676658 97.50000000000001 0.0
  endloop
endfacet
facet normal 0.0 0.0 1.0
  outer loop
    vertex 180.49038105676658 97.50000000000001 0.0
    vertex 335.0 0.0 0.0
    vertex 181.98888739433605 101.11771432346221 0.0
  endloop
endfacet
facet normal 0.0 0.0 1.0
  outer loop
    vertex 181.98888739433605 101.11771432346221 0.0
    vertex 335.0 0.0 0.0
    vertex 182.5 105.00000000000001 0.0
  endloop
endfacet
facet normal 0.0 0.0 1.0
  outer loop
    vertex 175.0 117.99038105676658 0.0
    vertex 172.5 120.0 0.0
    vertex 172.5 119.02591496269933 0.0
  endloop
endfacet
facet normal 0.0 0.0 1.0
  outer loop
    vertex 172.5 120.0 0.0
    vertex 175.0 117.99038105676658 0.0
    vertex 172.5 210.00000000000003 0.0
  endloop
endfacet
facet normal 0.0 0.0 1.0
  outer loop
    vertex 172.5 210.00000000000003 0.0
    vertex 175.0 117.99038105676658 0.0
    vertex 335.0 210.00000000000003 0.0
  endloop
endfacet
facet normal 0.0 0.0 1.0
  outer loop
    vertex 335.0 210.00000000000003 0.0
    vertex 175.0 117.99038105676658 0.0
    vertex 178.1066017177982 115.60660171779823 0.0
  endloop
endfacet
facet normal 0.0 0.0 1.0
  outer loop
    vertex 335.0 210.00000000000003 0.0
    vertex 178.1066017177982 115.60660171779823 0.0
    vertex 180.49038105676658 112.50000000000001 0.0
  endloop
endfacet
facet normal 0.0 0.0 1.0
  outer loop
    vertex 335.0 210.00000000000003 0.0
    vertex 180.49038105676658 112.50000000000001 0.0
    vertex 181.98888739433605 108.88228567653785 0.0
  endloop
endfacet
facet normal 0.0 0.0 1.0
  outer loop
    vertex 335.0 210.00000000000003 0.0
    vertex 181.98888739433605 108.88228567653785 0.0
    vertex 182.5 105.00000000000001 0.0
  endloop
endfacet
facet normal 0.0 0.0 1.0
  outer loop
    vertex 335.0 210.00000000000003 0.0
    vertex 182.5 105.00000000000001 0.0
    vertex 335.0 0.0 0.0
  endloop
endfacet
facet normal 0.0 0.0 1.0
  outer loop
    vertex 152.5 105.00000000000001 0.0
    vertex 162.5 210.00000000000003 0.0
    vertex 0.0 210.00000000000003 0.0
  endloop
endfacet
facet normal 0.0 0.0 1.0
  outer loop
    vertex 162.5 210.00000000000003 0.0
    vertex 152.5 105.00000000000001 0.0
    vertex 153.01111260566398 108.88228567653782 0.0
  endloop
endfacet
facet normal 0.0 0.0 1.0
  outer loop
    vertex 162.5 210.00000000000003 0.0
    vertex 153.01111260566398 108.88228567653782 0.0
    vertex 154.50961894323345 112.5 0.0
  endloop
endfacet
facet normal 0.0 0.0 1.0
  outer loop
    vertex 162.5 210.00000000000003 0.0
    vertex 154.50961894323345 112.5 0.0
    vertex 156.8933982822018 115.6066017177982 0.0
  endloop
endfacet
facet normal 0.0 0.0 1.0
  outer loop
    vertex 162.5 210.00000000000003 0.0
    vertex 156.8933982822018 115.6066017177982 0.0
    vertex 160.0 117.99038105676658 0.0
  endloop
endfacet
facet normal 0.0 0.0 1.0
  outer loop
    vertex 162.5 210.00000000000003 0.0
    vertex 160.0 117.99038105676658 0.0
    vertex 162.5 119.02591496269933 0.0
  endloop
endfacet
facet normal 0.0 0.0 1.0
  outer loop
    vertex 162.5 210.00000000000003 0.0
    vertex 162.5 119.02591496269933 0.0
    vertex 162.5 120.0 0.0
  endloop
endfacet
facet normal 1.0 0.0 0.0
  outer loop
    vertex 162.5 210.00000000000003 -2.9999999999999494
    vertex 162.5 120.0 0.0
    vertex 162.5 120.0 -2.9999999999999494
  endloop
endfacet
facet normal 1.0 0.0 0.0
  outer loop
    vertex 162.5 120.0 0.0
    vertex 162.5 210.00000000000003 -2.9999999999999494
    vertex 162.5 210.00000000000003 0.0
  endloop
endfacet
facet normal 1.0 0.0 0.0
  outer loop
    vertex 162.5 120.0 -2.9999999999999494
    vertex 162.5 119.02591496269933 0.0
    vertex 162.5 119.02591496269933 -2.9999999999999494
  endloop
endfacet
facet normal 1.0 0.0 0.0
  outer loop
    vertex 162.5 119.02591496269933 0.0
    vertex 162.5 120.0 -2.9999999999999494
    vertex 162.5 120.0 0.0
  endloop
endfacet
facet normal -1.0 0.0 0.0
  outer loop
    vertex 172.5 120.0 0.0
    vertex 172.5 119.02591496269933 -2.9999999999999494
    vertex 172.5 119.02591496269933 0.0
  endloop
endfacet
facet normal -1.0 0.0 0.0
  outer loop
    vertex 172.5 119.02591496269933 -2.9999999999999494
    vertex 172.5 120.0 0.0
    vertex 172.5 120.0 -2.9999999999999494
  endloop
endfacet
facet normal -1.0 0.0 0.0
  outer loop
    vertex 172.5 210.00000000000003 0.0
    vertex 172.5 120.0 -2.9999999999999494
    vertex 172.5 120.0 0.0
  endloop
endfacet
facet normal -1.0 0.0 0.0
  outer loop
    vertex 172.5 120.0 -2.9999999999999494
    vertex 172.5 210.00000000000003 0.0
    vertex 172.5 210.00000000000003 -2.9999999999999494
  endloop
endfacet
facet normal 0.0 1.0 0.0
  outer loop
    vertex 0.0 210.00000000000003 0.0
    vertex 162.5 210.00000000000003 -2.9999999999999494
    vertex 0.0 210.00000000000003 -2.9999999999999494
  endloop
endfacet
facet normal 0.0 1.0 0.0
  outer loop
    vertex 162.5 210.00000000000003 -2.9999999999999494
    vertex 0.0 210.00000000000003 0.0
    vertex 162.5 210.00000000000003 0.0
  endloop
endfacet
facet normal -1.0791234491189238e-31 1.3099762630191355e-15 -1.0
  outer loop
    vertex 162.5 210.00000000000003 -2.9999999999999494
    vertex 0.0 0.0 -2.9999999999999494
    vertex 0.0 210.00000000000003 -2.9999999999999494
  endloop
endfacet
facet normal -1.0791234491189238e-31 1.3099762630191355e-15 -1.0
  outer loop
    vertex 0.0 0.0 -2.9999999999999494
    vertex 162.5 210.00000000000003 -2.9999999999999494
    vertex 152.5 105.00000000000001 -3.0000000000004006
  endloop
endfacet
facet normal -1.0791234491189238e-31 1.3099762630191355e-15 -1.0
  outer loop
    vertex 152.5 105.00000000000001 -3.0000000000004006
    vertex 162.5 210.00000000000003 -2.9999999999999494
    vertex 153.01111260566398 108.88228567653782 -3.0000000000004006
  endloop
endfacet
facet normal -1.0791234491189238e-31 1.3099762630191355e-15 -1.0
  outer loop
    vertex 153.01111260566398 108.88228567653782 -3.0000000000004006
    vertex 162.5 210.00000000000003 -2.9999999999999494
    vertex 154.50961894323345 112.5 -3.0000000000004006
  endloop
endfacet
facet normal -1.0791234491189238e-31 1.3099762630191355e-15 -1.0
  outer loop
    vertex 154.50961894323345 112.5 -3.0000000000004006
    vertex 162.5 210.00000000000003 -2.9999999999999494
    vertex 156.8933982822018 115.6066017177982 -3.0000000000004006
  endloop
endfacet
facet normal -1.0791234491189238e-31 1.3099762630191355e-15 -1.0
  outer loop
    vertex 156.8933982822018 115.6066017177982 -3.0000000000004006
    vertex 162.5 210.00000000000003 -2.9999999999999494
    vertex 160.0 117.99038105676658 -3.0000000000004006
  endloop
endfacet
facet normal -1.0791234491189238e-31 1.3099762630191355e-15 -1.0
  outer loop
    vertex 160.0 117.99038105676658 -3.0000000000004006
    vertex 162.5 210.00000000000003 -2.9999999999999494
    vertex 162.5 119.02591496269933 -2.9999999999999494
  endloop
endfacet
facet normal -1.0791234491189238e-31 1.3099762630191355e-15 -1.0
  outer loop
    vertex 162.5 119.02591496269933 -2.9999999999999494
    vertex 162.5 210.00000000000003 -2.9999999999999494
    vertex 162.5 120.0 -2.9999999999999494
  endloop
endfacet
facet normal -1.0791234491189238e-31 1.3099762630191355e-15 -1.0
  outer loop
    vertex 335.0 210.00000000000003 -2.9999999999999494
    vertex 172.5 120.0 -2.9999999999999494
    vertex 172.5 210.00000000000003 -2.9999999999999494
  endloop
endfacet
facet normal -1.0791234491189238e-31 1.3099762630191355e-15 -1.0
  outer loop
    vertex 172.5 120.0 -2.9999999999999494
    vertex 335.0 210.00000000000003 -2.9999999999999494
    vertex 172.5 119.02591496269933 -2.9999999999999494
  endloop
endfacet
facet normal -1.0791234491189238e-31 1.3099762630191355e-15 -1.0
  outer loop
    vertex 172.5 119.02591496269933 -2.9999999999999494
    vertex 335.0 210.00000000000003 -2.9999999999999494
    vertex 175.0 117.99038105676658 -3.0000000000004006
  endloop
endfacet
facet normal -1.0791234491189238e-31 1.3099762630191355e-15 -1.0
  outer loop
    vertex 175.0 117.99038105676658 -3.0000000000004006
    vertex 335.0 210.00000000000003 -2.9999999999999494
    vertex 178.1066017177982 115.60660171779823 -3.0000000000004006
  endloop
endfacet
facet normal -1.0791234491189238e-31 1.3099762630191355e-15 -1.0
  outer loop
    vertex 178.1066017177982 115.60660171779823 -3.0000000000004006
    vertex 335.0 210.00000000000003 -2.9999999999999494
    vertex 180.49038105676658 112.50000000000001 -3.0000000000004006
  endloop
endfacet
facet normal -1.0791234491189238e-31 1.3099762630191355e-15 -1.0
  outer loop
    vertex 180.49038105676658 112.50000000000001 -3.0000000000004006
    vertex 335.0 210.00000000000003 -2.9999999999999494
    vertex 181.98888739433605 108.88228567653785 -3.0000000000004006
  endloop
endfacet
facet normal -1.0791234491189238e-31 1.3099762630191355e-15 -1.0
  outer loop
    vertex 181.98888739433605 108.88228567653785 -3.0000000000004006
    vertex 335.0 210.00000000000003 -2.9999999999999494
    vertex 182.5 105.00000000000001 -3.0000000000004006
  endloop
endfacet
facet normal -1.0791234491189238e-31 1.3099762630191355e-15 -1.0
  outer loop
    vertex 0.0 0.0 -2.9999999999999494
    vertex 160.00000000000003 92.00961894323343 -3.0000000000004006
    vertex 335.0 0.0 -2.9999999999999494
  endloop
endfacet
facet normal -1.0791234491189238e-31 1.3099762630191355e-15 -1.0
  outer loop
    vertex 160.00000000000003 92.00961894323343 -3.0000000000004006
    vertex 0.0 0.0 -2.9999999999999494
    vertex 156.8933982822018 94.3933982822018 -3.0000000000004006
  endloop
endfacet
facet normal -1.0791234491189238e-31 1.3099762630191355e-15 -1.0
  outer loop
    vertex 156.8933982822018 94.3933982822018 -3.0000000000004006
    vertex 0.0 0.0 -2.9999999999999494
    vertex 154.50961894323345 97.5 -3.0000000000004006
  endloop
endfacet
facet normal -1.0791234491189238e-31 1.3099762630191355e-15 -1.0
  outer loop
    vertex 154.50961894323345 97.5 -3.0000000000004006
    vertex 0.0 0.0 -2.9999999999999494
    vertex 153.01111260566398 101.1177143234622 -3.0000000000004006
  endloop
endfacet
facet normal -1.0791234491189238e-31 1.3099762630191355e-15 -1.0
  outer loop
    vertex 153.01111260566398 101.1177143234622 -3.0000000000004006
    vertex 0.0 0.0 -2.9999999999999494
    vertex 152.5 105.00000000000001 -3.0000000000004006
  endloop
endfacet
facet normal -1.0791234491189238e-31 1.3099762630191355e-15 -1.0
  outer loop
    vertex 335.0 0.0 -2.9999999999999494
    vertex 160.00000000000003 92.00961894323343 -3.0000000000004006
    vertex 163.6177143234622 90.51111260566398 -3.0000000000004006
  endloop
endfacet
facet normal -1.0791234491189238e-31 1.3099762630191355e-15 -1.0
  outer loop
    vertex 335.0 0.0 -2.9999999999999494
    vertex 163.6177143234622 90.51111260566398 -3.0000000000004006
    vertex 167.5 90.00000000000001 -3.0000000000004006
  endloop
endfacet
facet normal -1.0791234491189238e-31 1.3099762630191355e-15 -1.0
  outer loop
    vertex 335.0 0.0 -2.9999999999999494
    vertex 167.5 90.00000000000001 -3.0000000000004006
    vertex 171.3822856765378 90.51111260566398 -3.0000000000004006
  endloop
endfacet
facet normal -1.0791234491189238e-31 1.3099762630191355e-15 -1.0
  outer loop
    vertex 335.0 0.0 -2.9999999999999494
    vertex 171.3822856765378 90.51111260566398 -3.0000000000004006
    vertex 175.00000000000003 92.00961894323343 -3.0000000000004006
  endloop
endfacet
facet normal -1.0791234491189238e-31 1.3099762630191355e-15 -1.0
  outer loop
    vertex 335.0 0.0 -2.9999999999999494
    vertex 175.00000000000003 92.00961894323343 -3.0000000000004006
    vertex 178.1066017177982 94.3933982822018 -3.0000000000004006
  endloop
endfacet
facet normal -1.0791234491189238e-31 1.3099762630191355e-15 -1.0
  outer loop
    vertex 335.0 0.0 -2.9999999999999494
    vertex 178.1066017177982 94.3933982822018 -3.0000000000004006
    vertex 180.49038105676658 97.50000000000001 -3.0000000000004006
  endloop
endfacet
facet normal -1.0791234491189238e-31 1.3099762630191355e-15 -1.0
  outer loop
    vertex 335.0 0.0 -2.9999999999999494
    vertex 180.49038105676658 97.50000000000001 -3.0000000000004006
    vertex 181.98888739433605 101.11771432346221 -3.0000000000004006
  endloop
endfacet
facet normal -1.0791234491189238e-31 1.3099762630191355e-15 -1.0
  outer loop
    vertex 335.0 0.0 -2.9999999999999494
    vertex 181.98888739433605 101.11771432346221 -3.0000000000004006
    vertex 182.5 105.00000000000001 -3.0000000000004006
  endloop
endfacet
facet normal -1.0791234491189238e-31 1.3099762630191355e-15 -1.0
  outer loop
    vertex 335.0 0.0 -2.9999999999999494
    vertex 182.5 105.00000000000001 -3.0000000000004006
    vertex 335.0 210.00000000000003 -2.9999999999999494
  endloop
endfacet
endsolid Untitled-5d49d186
